<svg xmlns="http://www.w3.org/2000/svg" xmlns:xlink="http://www.w3.org/1999/xlink" height="792" width="1011">
  <g opacity="1">
    <g transform="translate(709.3486486486487, 107.72941176470587)" opacity="1">
      <g opacity="1">
        <ellipse fill="rgb(242,242,242)" fill-opacity="1" opacity="1" rx="53" ry="53" cx="53" cy="53"/>
      </g>
      <g opacity="1">
        <ellipse fill="rgb(0,0,0)" fill-opacity="0.1" opacity="1" rx="3" ry="3" cx="53" cy="11"/>
      </g>
      <g opacity="1">
        <ellipse fill="rgb(0,0,0)" fill-opacity="0.1" opacity="1" rx="3" ry="3" cx="11" cy="53"/>
      </g>
      <g opacity="1">
        <ellipse fill="rgb(0,0,0)" fill-opacity="0.1" opacity="1" rx="3" ry="3" cx="95" cy="53"/>
      </g>
      <g opacity="1">
        <ellipse fill="rgb(0,0,0)" fill-opacity="0.1" opacity="1" rx="3" ry="3" cx="53" cy="95"/>
      </g>
      <g opacity="1">
        <path fill="rgb(175,185,197)" fill-opacity="1" opacity="1" fill-rule="evenodd" d="M53 17.000000000000025L55.00000000000001 52.00000000000004L51 52.00000000000004L53 17.000000000000025Z"/>
      </g>
      <g transform="translate(62.2132034355966, 62.21320343559637) rotate(135.00004827116254) translate(-62.2132034355966, -62.21320343559637)" opacity="1">
        <path fill="rgb(175,185,197)" fill-opacity="1" opacity="1" fill-rule="evenodd" d="M62.2132034355966 50.2132034355964L64.21320343559661 74.2132034355964L60.2132034355966 74.2132034355964L62.2132034355966 50.2132034355964Z"/>
      </g>
      <g opacity="1">
        <ellipse fill="rgb(197,207,214)" fill-opacity="1" opacity="1" rx="4" ry="4" cx="53" cy="53"/>
      </g>
    </g>
    <g transform="translate(39.62027027027031, 284.18823529411765)" opacity="0.3458891369047619">
      <g transform="translate(360.64729729729726, 160.72941176470587) scale(-1, 1) translate(-360.64729729729726, -160.72941176470587)" opacity="1">
        <path fill="rgb(242,242,242)" fill-opacity="1" opacity="1" fill-rule="evenodd" d="M0.314656076856839 200.7776576116354C10.82875846041744 111.03858177657361 574.9551130440349 -62.16728867847389 679.6832042780085 22.83179048328219C784.411295511982 107.83086964503826 683.7282250572235 267.35190628218913 464.25682886061753 308.2011839769709C244.78543266401252 349.05046167175254 -10.19944630670389 290.51673344669723 0.314656076856839 200.7776576116354Z"/>
      </g>
      <g opacity="1">
        <path fill="rgb(221,227,233)" fill-opacity="1" opacity="1" fill-rule="evenodd" d="M244.22696851621845 259.08612211881575C253.93639368789644 182.84926638217206 774.8883901003779 35.70410318825748 871.6013122418663 107.91414631052612C968.3142343833537 180.12418943279485 943.8343069827246 332.00964846994657 741.1597446704454 366.7127079965127C538.4851823581669 401.4157675230782 234.51754334454031 335.3229778554593 244.22696851621845 259.08612211881575Z"/>
      </g>
    </g>
    <g transform="translate(52.28310810810814, 0)" opacity="1">
      <g transform="translate(0, 187.26170468187274)" opacity="1">
        <g opacity="1">
          <ellipse fill="rgb(242,242,242)" fill-opacity="1" opacity="1" rx="42.50000000000001" ry="22.5" cx="49.5" cy="34.5"/>
        </g>
        <g opacity="1">
          <path fill="rgb(221,227,233)" fill-opacity="1" opacity="1" fill-rule="evenodd" d="M99.00000000000001 50C99.00000000000001 22.38576250999992 76.8380951151 0 49.5 0C22.16190488489999 0 -1.4210854715202004e-14 22.38576250999992 -1.4210854715202004e-14 50"/>
        </g>
      </g>
      <g opacity="1">
        <rect fill="rgb(221,227,233)" fill-opacity="1" opacity="1" x="47.00000000000001" y="0" width="5" height="194.58823529411765" rx="0" ry="0"/>
      </g>
    </g>
    <g transform="translate(170.66486486486485, 0)" opacity="0.7000000000000001">
      <g transform="translate(0, 139.18823529411765)" opacity="1">
        <g opacity="1">
          <ellipse fill="rgb(242,242,242)" fill-opacity="1" opacity="1" rx="31.76767676767677" ry="18.157894736842106" cx="37" cy="27.842105263157894"/>
        </g>
        <g opacity="1">
          <path fill="rgb(221,227,233)" fill-opacity="1" opacity="1" fill-rule="evenodd" d="M74 40.35087719298245C74 18.065703078245548 57.4345357426 0 37 0C16.565464257399995 0 -7.105427357601002e-15 18.065703078245548 -7.105427357601002e-15 40.35087719298245"/>
        </g>
      </g>
      <g opacity="1">
        <rect fill="rgb(221,227,233)" fill-opacity="1" opacity="1" x="35" y="0" width="5" height="162.18823529411765" rx="0" ry="0"/>
      </g>
    </g>
    <g transform="translate(715.8972972972972, 242.14117647058828)" opacity="1">
      <g opacity="1">
        <path fill-opacity="0" stroke="rgb(203,203,203)" stroke-opacity="1" stroke-width="8" opacity="1" fill-rule="evenodd" d="M60 40.4097685390847L98.0513275973869 14.972223302506896C100.74240118855468 13.173224147087385 104.25238896062892 13.173224147087389 106.9434625517967 14.972223302506908L200.2475403598152 77.3465700036625C204.68894389285094 80.31567543096573 207.35540540540538 85.30563246585758 207.35540540540538 90.64807127053321L207.3554054054054 473.8588235294117"/>
      </g>
      <g opacity="1">
        <path fill="rgb(175,185,197)" fill-opacity="1" opacity="1" fill-rule="evenodd" d="M180.3554054054054 472.8588235294117L233.3554054054054 472.8588235294117C235.0111504788874 472.8588235294117 236.3554054054054 474.2030784559297 236.3554054054054 475.8588235294117L236.3554054054054 476.8588235294117C236.3554054054054 478.51456860289375 235.0111504788874 479.8588235294117 233.3554054054054 479.8588235294117L180.3554054054054 479.8588235294117C178.6996603319234 479.8588235294117 177.3554054054054 478.51456860289375 177.3554054054054 476.8588235294117L177.3554054054054 475.8588235294117C177.3554054054054 474.2030784559297 178.6996603319234 472.8588235294117 180.3554054054054 472.8588235294117Z"/>
      </g>
      <g transform="translate(48.08326112068528, 49.08326112068517) rotate(45.00001609038752) translate(-48.08326112068528, -49.08326112068517) translate(14.58326112068528, 14.58326112068517)" opacity="1">
        <g opacity="1">
          <path fill="rgb(197,207,214)" fill-opacity="1" opacity="1" fill-rule="evenodd" d="M33.03031191999614 1.383901642377289L33.03031191999614 1.383901642377289C51.24350772829813 1.383901642377289 66.03031191999612 16.17070583407528 66.03031191999612 34.383901642377275L66.03031191999612 62.38390164237729L0.03031191999615146 62.38390164237729L0.03031191999615146 34.383901642377275C0.03031191999615146 16.170705834075285 14.817116111694137 1.383901642377296 33.03031191999613 1.383901642377289Z"/>
        </g>
        <g opacity="1">
          <ellipse fill="rgb(242,242,242)" fill-opacity="1" opacity="1" rx="33.0000000000001" ry="6.5" cx="33.20892878170874" cy="61.44540015084247"/>
        </g>
      </g>
    </g>
    <g transform="translate(46.762162162162156, 483)" opacity="1">
      <g transform="translate(22, 0)" opacity="1">
        <g opacity="1">
          <path fill="rgb(221,227,233)" fill-opacity="1" opacity="1" fill-rule="evenodd" d="M25.25795391431566 1.1730930741178482C28.12253064970651 0.8231214358573212 31.17990407424186 0.9466599943781632 33.84387657541671 2.077366112375146C39.50854159307341 4.482008337529475 41.11873165438394 11.174143606751255 41.041051630140785 16.613518237193034C40.95730650546893 22.468041143958622 39.71405103055078 28.862660197345317 44.16511615191624 33.57979094548242C46.21118222244065 35.748455285363725 48.75632938478465 37.40811519172536 50.76542916622946 39.61660025940598C52.912185099999725 41.97666431406354 54.59662931699347 44.67704677875493 55.84383428290932 47.57682892624055C58.13385067677174 52.90317905996464 59.25783071360696 59.166897494840356 57.16373599680718 64.75427376156289C55.31992236033457 69.6736307289984 50.681093450489115 74.11377191172305 51.68343187514471 79.70755683286646C52.728958999068986 85.54291642628708 58.61220995193971 90.00409774530365 62.29044398023519 94.35052451917028C66.45316556171039 99.26931821363026 70.28590180295654 105.55598727968288 70.91553385733955 112.00646889942024C71.5192882185564 118.18832363531833 68.82840742150253 124.44038081696782 64.69876900305805 129.11335761869492C56.44774095951668 138.45073820428945 44.04516611632018 143.0282309564068 31.53956402381311 142.99986901911814C26.230025889228187 142.98756874133392 20.21855074519471 142.74776848447686 15.636562335049863 139.89451397403525C14.22043242590216 139.0125943429847 13.473332907150313 138.02315992748504 12.631483358699487 136.6477056965296C11.876674919878448 135.4143233258377 10.879578742569958 134.6120601352469 9.725459946171798 133.73931858459957C7.189864839601238 131.8223941418393 5.35871536721105 129.23884354956726 4.190121771359825 126.34682932139948C-0.34777978906915874 115.11402319671141 3.2791667521940067 101.21766464089644 9.631201803793061 91.24284545955229C11.136353664252116 88.8796069027785 12.36864533333361 86.60546293046957 11.6374364432698 83.78862160995722C10.874397788977907 80.8481806198472 8.999014490101885 78.19606289050162 7.340259210580872 75.66850393825355C5.701145373020795 73.17048749188568 3.829878644544424 70.78741369662802 2.5487575647037417 68.0865101562474C1.2069928946870208 65.25712136736203 0.8291627138827194 62.294275704706045 1.066237497006628 59.19774515319189C1.5118033080182092 53.381114731666884 4.022732411190336 48.01348053297358 7.577661531820494 43.335625171906365C11.001716099250793 38.82982723772527 15.022127709027385 34.518476363015836 15.031136249109155 28.614523591726027C15.041028842747448 22.357137869603665 10.857731453820895 16.79080731631883 12.639877949748621 10.428979136559796C13.377803226485183 7.794661430314529 14.859954257757002 5.091835566939727 17.24854987881944 3.512523028122083C19.53925778729449 1.9978461646090475 22.5638535899628 1.5022372344070571 25.25795391431566 1.1730930741178482Z"/>
        </g>
        <g opacity="1">
          <path fill="rgb(197,207,214)" fill-opacity="1" opacity="1" fill-rule="evenodd" d="M23.38615969024985 11.176430946353006C23.439877761941062 10.33604025454921 24.436748987192804 9.832005148802788 25.221507749433513 10.051301083538277C26.25446641411084 10.340097201340761 26.234600726055447 11.30527157491163 26.207329304476172 12.165166359345056C26.123730380637184 14.808278373855671 26.506296279204733 17.376951737329595 27.14165586920913 19.94151991707231C28.462182361363944 25.27354256669102 30.902692941817378 30.186125389418073 32.83618946174109 35.30795583811722C34.7680008580644 40.425498615085246 35.67483385185041 45.70920675844162 34.54155226099455 51.12429761870942C33.473205772783025 56.22997319440108 31.794800770305834 61.203315557028596 30.701451264342033 66.31543567675332C29.737752394571537 70.82111294887196 28.71233062802176 75.57260236662503 30.17992083844151 80.06680632265198C31.592103508029616 84.39280439485111 34.71424504751933 87.91585664968665 36.96245764126215 91.82529374149519C41.6165172055851 99.91807754942727 43.681266950839 108.89605409545914 43.95743654650689 118.13518360697856C44.085423265334164 122.42548053867333 43.970168036363354 126.75522887233728 42.97486816512222 130.96307640106718C42.402006822585534 133.38596594848346 41.63217755494 136.66039353766635 39.555923737122 138.33316317971594C38.59850988433253 139.10456510318656 36.9610281770901 139.37130427008447 36.155219576881144 138.2289455984017C35.39868263705114 137.1575039735852 36.062371253741844 135.49880468212632 36.30254569265404 134.3568159815491C37.34267535937484 129.41333192040346 37.551925976867814 124.36128736728739 37.30290403134904 119.34169617365478C37.06189100925149 114.47956260685274 36.4874288763245 109.62554915590508 34.95718166119045 104.98200968473185C33.536906965919314 100.67273814534946 31.37924697444715 96.80217487173212 28.839811297513666 93.03247818770069C26.252144168951617 89.19089381450988 23.56203699330224 85.34111313306664 22.49282213788246 80.78923115368741C21.406468417767492 76.16613431563906 22.289021832363606 71.46198477019 23.469116814886863 66.92717919831058C24.717096040176948 62.130634123541384 26.351753561999406 57.471687602705536 28.0416980695942 52.80510228583093C29.688607028049905 48.25786285073308 30.272355520004453 43.955365683360554 29.363192801932296 39.19615130353433C27.567185525911956 29.79352979062656 22.75980219103761 20.968116643205775 23.38615969024985 11.176430946353006Z"/>
        </g>
      </g>
      <g transform="translate(32, 11)" opacity="1">
        <g opacity="1">
          <path fill="rgb(221,227,233)" fill-opacity="1" opacity="1" fill-rule="evenodd" d="M90.89233227727925 1.5822734872767241C94.43718154705532 2.658604836253245 97.95788298915213 4.395218883614802 100.48481335105242 7.118279660186273C105.85790772152733 12.908958036618316 104.2092951913856 21.660909166855046 101.24313808066304 28.053244985578146C98.05043565007927 34.93339081318264 93.21226705017561 41.849065221966505 95.9396344782312 49.74321116838732C97.19319604508634 53.37233972480252 99.30117113003101 56.65913948444661 100.49032714619446 60.316130383745026C101.76082145643542 64.22399437051457 102.30919012088263 68.29382290288217 102.23932494999552 72.37200506631832C102.1099839963429 79.862403853735 100.11753959202933 87.85476068821673 94.7080977583534 93.37314303794935C89.94530062293661 98.23171011439729 82.15751985131135 101.06951453794468 80.3765030792643 108.20630978625039C78.51845525427314 115.65126528891497 83.0609213299171 123.98777388539504 85.07777365941787 131.04147157591936C87.36035104551144 139.02410663112212 88.53288121383802 148.45276111494874 85.86189920354816 156.40881808667976C83.30255112650347 164.03372772410478 76.84181275138023 170.02771762647808 69.52819446223893 173.4057718384955C54.91516428006238 180.1560327943875 37.948672055031565 179.117398294247 23.29581816554562 172.57816248852296C17.074752056310363 169.80147522827468 10.15063048420804 166.39057719217885 6.284528955923512 160.63259080832378C5.089696536040857 158.85290709666924 4.736399373715905 157.29411817900478 4.476005075834776 155.22952104398033C4.24260769510143 153.37822254111973 3.4971573937003475 151.91073334979814 2.6047871323022096 150.2782079239504C0.6439958981107383 146.69212958801947 -0.1381965183637579 142.68415012483962 0.01976625480085191 138.6560499009527C0.6344858005140653 123.01112157432163 12.233623777168843 108.46374328814174 24.95624713923537 99.9717320993786C27.970760478486266 97.95991807230207 30.61814356978883 95.91152164961197 31.249382178850823 92.19986019046354C31.908617669022743 88.32546797316363 31.110785286358443 84.21338779325056 30.501199306474017 80.36130882746588C29.899035769593542 76.55438551975433 28.963825353759614 72.7626252653351 28.88879059920261 68.90199822248087C28.810539264216995 64.85787301061293 29.933428775173915 61.15737851514389 31.848202245583312 57.61867210486438C35.44525633723788 50.97156614440449 41.227456750705045 45.929903093400846 47.8695760112179 42.24710272376006C54.267249258307274 38.699698094229916 61.26161353344761 35.692489930258944 64.39278402106821 28.71500740719007C67.71180260040417 21.320005736756613 65.74735510685555 12.560872659973807 71.20025802390558 5.9643207721007645C73.45817192016925 3.232793003918277 76.6252004461886 0.8074085996436755 80.26155327741706 0.18227321181406353C83.74892946705468 -0.4173457158426017 87.55844373119955 0.5699966644690501 90.89233227727925 1.5822734872767241Z"/>
        </g>
        <g opacity="1">
          <path fill="rgb(197,207,214)" fill-opacity="1" opacity="1" fill-rule="evenodd" d="M83.65125407120371 13.810881293658518C84.15420142227592 12.843816216349467 85.58382780642734 12.769409951146837 86.38660207282697 13.440423374998053C87.44319959195165 14.323830329057099 86.91448368434602 15.456411688911528 86.43224583255463 16.460435678024535C84.95022675291561 19.54668552743746 84.05228368626378 22.789113365169385 83.45208446422268 26.159176401501536C82.20366934340524 33.165673075314835 82.48453280836114 40.262471316813304 82.06295194486513 47.341326813912666C81.6416462163414 54.414221475352235 79.93479926020484 61.14667332301943 75.77362011647637 66.96542841121833C71.85041893933737 72.45179741986003 67.28317738254677 77.46170293163007 63.32736478569744 82.942598970561C59.84076360776431 87.77327774474922 56.15325113253265 92.86270512927084 55.51558621411215 98.9541078101085C54.90122655061285 104.81727440433755 56.706860104473876 110.62580458958539 57.28824123594499 116.43385314934103C58.49187318581719 128.45694458485167 56.20420439449244 140.17117811557 51.68836077381903 151.25723008366074C49.59107726912444 156.40503278515197 47.188707127593155 161.47206488051046 43.821135765669254 165.9334801348382C41.88235410339251 168.50249776182994 39.26728363973701 171.9767000371341 35.96342932858616 172.86942642861362C34.43991387327776 173.28113869993456 32.38549412355441 172.73876770763493 32.04153793223499 170.96359796464756C31.718054428388605 169.2982354360961 33.36281500428165 167.6818041612483 34.24174207996536 166.45530341205247C38.04700519153808 161.1462180429519 40.9375701696673 155.2730830537755 43.27527640535796 149.19818618035535C45.53988291233339 143.31395390130186 47.41033177016255 137.26456714069235 48.05294218235892 130.96347566994683C48.64907965219889 125.11587595458789 48.15322323897598 119.40132445794106 47.15812676672296 113.60612273041194C46.14428228257897 107.7005095239688 45.014946382448464 101.73149808058986 46.14864252798371 95.780591436246C47.29959511419434 89.7363666533764 50.79525727191344 84.62811925849242 54.550147543498966 79.87636537078703C58.52149519663169 74.85023047905844 62.872925210153 70.18971426215424 67.29300341025 65.54912946910386C71.60025524435335 61.02732206857797 74.53616647677991 56.23811303736491 75.96559831462886 50.12556413836367C78.78990755752685 38.04930698169166 77.79068973093939 25.07824847029392 83.65125407120371 13.810881293658518Z"/>
        </g>
      </g>
      <g transform="translate(0, 57)" opacity="1">
        <g opacity="1">
          <path fill="rgb(197,207,214)" fill-opacity="1" opacity="1" fill-rule="evenodd" d="M13.305976512804842 -1.5631940186722204e-13C19.20026599832459 -1.5631940186722204e-13 24.38233192731624 3.1243611937899187 27.953089383288106 7.557933667927452C32.133000042474784 12.748060046530272 32.977212972310504 19.086236150914665 34.67453699198026 25.27194255985582C35.5191206784826 28.350309332455545 36.97174529819989 31.406222135655057 39.517360571037955 33.497700737039104C41.83273595392077 35.39976924170884 44.77209480668214 35.780400239120624 47.54350088947616 36.709704843648886C53.082234731731795 38.56686540951817 57.554672400861534 43.040637732097856 59.32095716051786 48.49948742190868C61.47579490676523 55.15817583144031 59.19341686720936 61.87336132526879 59.58641893379959 68.62150345160397C59.947165170396076 74.81879900604221 66.05760579254039 78.68522767242742 70.97383919158378 81.65603268838434C75.82148260730722 84.58555137350922 80.1886253831241 87.32783292670028 81.64866513617332 93.03476276230275C83.19694497587204 99.0875561588278 83.71637506577102 105.84366582269168 81.5719185061883 111.82294057747056C78.00153180688304 121.77874088085456 67.55249667224956 126.16269732583335 57.456051127547454 126.84247314138274C48.2931708693303 127.45923297829314 36.77190745490548 126.49081500771264 29.890663722911043 119.83973197491375C25.77304018371226 115.85958481834092 24.281856870669145 110.29317337188729 24.46686444729981 104.75501046758208C24.581799013944124 101.31122345103468 25.263991280478006 97.89930658460408 26.146021390306394 94.57141102302549C26.77111713018474 92.21265775362066 27.615700816687085 89.8640449865257 27.856321893306966 87.42670282421975C28.49587714318253 80.94221375793832 22.502595627682 79.6967427778238 17.40098389534133 77.91636030087108C10.918303579936039 75.65357964261199 6.379871224152444 71.3797200798531 3.223990478099875 65.42543442005227C0.28500238200512035 59.88147694299817 -0.9481342910882631 53.658105811192 0.8137013885688648 47.55424774232236C1.7135278183938045 44.43749192526434 3.3455986647428655 41.60974042403406 5.559015964312175 39.20463057264157C6.533364484122668 38.14603456366424 7.906647177188753 37.26308654112364 8.786081990350958 36.15089073422323C9.606937250191228 35.11221356906832 9.4282325368927 33.7664240482471 9.145345200281032 32.54992593187497C7.83731568053556 26.930639009091525 3.76195840132856 22.277597092108085 2.3045139449454446 16.668450671635185C0.9886985352015165 11.605442732700267 1.7665460217168445 5.304207029587619 6.395443004149438 2.0378788034608024C8.395304463760358 0.6265381784227883 10.861577809947125 0.015572914261275512 13.305976512804842 -1.5631940186722204e-13Z"/>
        </g>
        <g opacity="1">
          <path fill="rgb(175,185,197)" fill-opacity="1" opacity="1" fill-rule="evenodd" d="M21.337691275241678 14.641376723724825C27.585006853559563 21.29602292228536 29.28310269867277 30.324974452968217 29.78146091182599 39.07615109198896C30.060615069599667 43.98338679215166 29.770059358609956 49.1593434435704 31.211804152381646 53.91918099392047C32.44537865195058 57.99309201909616 35.33732745639621 61.107285361213876 38.31828193433486 64.05054030846318C44.318809054331076 69.9754389102827 51.01078520807495 75.99884438372275 52.765888819268504 84.57365026363075C53.79570652910538 89.60583034139862 53.10057957496543 94.80351644979261 54.52356697473659 99.78028641227503C55.81745936873882 104.30399719683093 58.09556325971377 108.74839546342814 60.866508483253554 112.56843399961429C63.09753499320743 115.64460079202581 66.00419547922215 117.99971177048768 68.44302449133946 120.86727577594071C69.18706778669666 121.74261073441244 70.25292911637791 123.03116753302332 69.94582276362294 124.26684931966219C69.58648994129769 125.71403115418977 67.74311624068962 126.17216053874382 66.43524774919675 125.94472555574029C63.3858839519617 125.41488896316918 60.81906331019322 122.50314172853409 58.82526266554108 120.38633046156306C55.909775170584865 117.29096931549039 53.432327994348654 113.96165434932085 51.41866657957822 110.22708501056992C49.18322656515363 106.07965598929532 47.38325232517444 101.67871663664793 46.61419917114979 97.02571558309155C45.81609044602618 92.19851671611909 46.21330584839184 87.16778526881632 44.39089629401966 82.53506504176943C41.32424627094103 74.73998450964422 33.886020069604584 70.13985846805984 28.508164872020483 64.06430229788C21.80772950137444 56.49375948782879 22.807020471955493 47.07150478590016 23.493320417153935 37.75898384169476C23.87030725736205 32.64133456649167 24.245087345334895 26.862023326403556 21.65914151752655 22.189465761569245C20.671987684239955 20.40583950154712 18.47112012150281 18.742811727735514 18.046688108234278 16.715453391978244C17.65793192277087 14.85794697824175 19.779724197074103 12.980884053227326 21.337691275241678 14.641376723724825Z"/>
        </g>
      </g>
      <g opacity="1">
        <path fill="rgb(137,197,204)" fill-opacity="1" opacity="1" fill-rule="evenodd" d="M28.000379887518065 181C28.000379887517997 219.05848951437378 34.21122896629399 239 67.00009305574793 239C99.78895714520186 239 105.99980622397771 219.05848951437378 105.99980622397779 181L28.000379887518065 181Z"/>
      </g>
    </g>
    <g transform="translate(207.3277027027027, 465)" opacity="1">
      <g transform="translate(23, 0)" opacity="1">
        <g opacity="1">
          <path fill="rgb(175,185,197)" fill-opacity="1" opacity="1" fill-rule="evenodd" d="M22.99999999999999 143.9999999999999L56.999999999999986 143.9999999999999C58.10383004898799 143.9999999999999 58.999999999999986 144.8961699510119 58.999999999999986 145.9999999999999L58.999999999999986 150.9999999999999C58.999999999999986 152.10383004898787 58.10383004898799 152.9999999999999 56.999999999999986 152.9999999999999L22.99999999999999 152.9999999999999C21.89616995101199 152.9999999999999 20.99999999999999 152.10383004898787 20.99999999999999 150.9999999999999L20.99999999999999 145.9999999999999C20.99999999999999 144.8961699510119 21.896169951011988 143.9999999999999 22.99999999999999 143.9999999999999Z"/>
        </g>
        <g opacity="1">
          <path fill="rgb(221,227,233)" fill-opacity="1" opacity="1" fill-rule="evenodd" d="M23.5 115C14.945317268371582 115 8 121.94532012939453 8 130.5L8 130.5C8 139.0546875 14.945317268371582 146 23.5 146L56.5 146C65.0546875 146 72 139.0546875 72 130.5L72 130.5C72 121.94532012939453 65.0546875 115 56.5 115L23.5 115Z"/>
        </g>
        <g opacity="1">
          <path fill="rgb(197,207,214)" fill-opacity="1" opacity="1" fill-rule="evenodd" d="M4.622222222222195 1.6786150417650139C4.622222222222195 1.6786150417650139 21.81111111111092 2.189585514285704e-15 38.99999999999973 0C56.18888888888854 0 73.37777777777735 1.6786150417650139 73.37777777777735 1.6786150417650139L77.99999999999955 81.133060351967C77.99999999999955 81.133060351967 58.49999999999958 82.99999999999999 38.999999999999716 82.99999999999999C19.499999999999847 82.99999999999999 2.524354896707238e-29 81.133060351967 2.524354896707238e-29 81.133060351967L4.622222222222195 1.6786150417650139Z"/>
        </g>
      </g>
      <g opacity="1">
        <path fill="rgb(242,242,242)" fill-opacity="1" opacity="1" fill-rule="evenodd" d="M0 257L0 153L125 153L125 257L104 257L104 175L21 175L21 257L0 257Z"/>
      </g>
    </g>
    <g transform="translate(753.9831081081081, 440)" opacity="1">
      <g transform="translate(13, 0)" opacity="1">
        <g opacity="1">
          <path fill="rgb(193,222,226)" fill-opacity="1" opacity="1" fill-rule="evenodd" d="M3.3809241294989993 0.2081870062726843C12.213924980603204 21.19722499300404 27.22920057570914 35.78053393673593 35.18189505437382 57.60488329825348C39.89776674701178 70.54736358098509 41.863552041316154 84.61950647499823 41.982784390793455 99.0319481155938C42.047562139102546 106.86025514667995 41.91129659684277 114.69358768668185 41.87464942449262 122.521894717768C41.83903456685653 130.1560017257517 41.63153930932461 137.7412895042679 40.98350374755512 145.32657728278406C40.33237124164335 152.9520691326265 39.60329897481785 160.48674285706238 39.28173294137906 168.15925911175952C39.03139662321243 174.13746093199558 38.91706776862706 181.09097044681442 36.89063398486996 186.54400658535207C35.279190716176714 190.88066181474272 31.183482088027812 191.51602972766563 30.096712772770406 186.25647568238531C29.492808665028214 183.3327063881723 29.568941875192312 180.06827938245436 29.63552617425108 177.0633840157439C29.720950216841935 173.20810074749988 29.945220588477813 169.3585609180168 30.059549443063197 165.50399557961788C30.519187569511423 150.0361970667097 29.923283900803444 134.56552683442106 30.234784865779826 119.09162591782948C30.53905962775764 103.9731002745676 32.48239207703055 88.87108701774326 30.33208052758275 73.85343051771946C28.55649921934933 61.45191037327872 24.045541997458045 50.802498015830444 18.86151558198061 40.593176653434945C13.873887040858635 30.77081947755406 8.445460116820591 21.18717397517248 5.074952575319367 10.014390760638552C4.10715753086074 6.8056033179166775 3.3589874418245986 3.4805112402868574 3.000000000000057 0.03014040468525895C3.156911836541633 -0.04272947459345922 3.2838865463745943 0.01649973762815337 3.3809241294989993 0.2081870062726843Z"/>
        </g>
        <g opacity="1">
          <path fill="rgb(137,197,204)" fill-opacity="1" opacity="1" fill-rule="evenodd" d="M0.9735884035922563 41.616955671644284C2.722664404331668 42.87999191698562 3.7000118365092503 44.727577252814584 4.882226326585639 46.55054999535983C6.352382406295915 48.81695962689958 8.080783749816163 50.86308654855029 9.550563926667921 53.131137019642274C12.615299932261822 57.85962639932707 15.30789210791116 62.878544379759404 18.101602152505034 67.79860177716893C23.40559148636123 77.13744008877683 27.43263880979153 87.09077281270083 29.42717937715095 97.89488084446437C31.494645099065142 109.09155973910276 32.05210903826494 120.64840291545912 32.91931693289332 132.01203723453855C33.83915122771587 144.056209757912 34.7653758711334 156.18816719733056 34.8871683972971 168.27869343805497C34.94167431178392 173.6955150099069 35.234502638578675 179.44583722075285 34.58419069332202 184.82450927301517C34.179343314685376 188.17305258926112 32.66821382339537 191.0268827805049 29.26140621653931 190.99980892789284C22.024900286981076 190.94237954356424 18.627490251588263 182.92728854073076 17.208081057779594 176.35367508454536C15.118812970070671 166.67436256584645 14.701936699961006 156.39286193147325 15.032731215467317 146.49408712266143C15.432315954084508 134.55821000973623 17.503916607442513 122.8015946178939 18.400444925036208 110.91166101243161C19.34997554568265 98.3247808071528 18.813562166560576 85.96023436120336 14.486168459164846 74.10886048521883C12.299917433955292 68.11979611952107 9.762573138878784 62.274305214644826 7.484225913329287 56.325031208089044C6.514020635463773 53.79198514930933 5.719361992531649 51.19002382933529 4.408964627696547 48.83131697298172C2.9512133423178035 46.20761452894042 1.1416169813550612 43.82593591885541 -3.382515928775249e-14 40.999999999999794C0.32440416691116425 41.205925363806664 0.6491842366809716 41.41144051772549 0.9735884035922563 41.616955671644284Z"/>
        </g>
        <g opacity="1">
          <path fill="rgb(193,222,226)" fill-opacity="1" opacity="1" fill-rule="evenodd" d="M84.33414273958422 16.5176701976516C84.55601332832302 16.345236963978696 84.7781570606937 16.172840154558294 84.99999999999996 15.999999999999886C84.36093972979278 18.69265752508504 83.20655889023593 20.879893834404104 82.32415365534602 23.341306566548425C81.53095919083174 25.55412671367199 81.12891390282174 28.058225020390697 80.59466543403035 30.476950492405663C79.34014159935198 36.157756699834195 77.89042649583685 41.71051561322601 76.70550484593868 47.43971708842204C74.35989510735432 58.776752395506435 74.80352833719662 70.99018431733535 76.3418843366093 83.56815242944116C77.79475069819492 95.44962613750178 80.0924779877826 107.31271277126365 81.18734520433422 119.19160875662212C82.09492005472794 129.04306998645546 82.4850091415969 139.2017405641147 81.61929284299582 148.60099978227308C81.03098464355116 154.984368994492 79.10255475826897 162.60599378135927 73.84813761971017 161.96175941941286C71.37446174568547 161.65850319695917 70.0840672436574 158.68112910138873 69.56418923499906 155.32020499319194C68.72911139350728 149.92164438582304 68.55430053884179 144.24580190586434 68.22879561008111 138.87769312968405C67.5023547750446 126.89590840879076 67.3576487197523 114.95097257892904 67.21421620125913 103.09249860626703C67.07841398271107 91.90400698726359 66.70451852873764 80.49384204709348 67.45211724608133 69.58726986688593C68.1731866056694 59.06305466909008 70.42848850621692 49.57973932134417 73.65307817437278 40.829724645976924C75.35145435448226 36.219820590476125 76.96969138437262 31.50205047763695 78.87791640808462 27.108440361747952C79.7930342971249 25.000993613398943 80.91103334791325 23.13875094985319 81.82653497831527 21.03296830929865C82.56269762309616 19.33916616849486 83.14833802250558 17.60109755692019 84.33414273958422 16.5176701976516Z"/>
        </g>
        <g opacity="1">
          <path fill="rgb(193,222,226)" fill-opacity="1" opacity="1" fill-rule="evenodd" d="M3.2088077173994747 76.30182233587936C4.165721589851335 74.69532515677653 6.272065165919056 79.99340925400706 6.592632705245478 80.65977507058392C6.45704991637625 80.32830838020561 6.320927874339165 79.99731724387425 6.183602061092681 79.6666140407486C8.082987670476506 82.82492672359055 9.82062483932728 86.11272943122871 10.900982901151952 89.73415190816938C11.97005029837635 93.31911277014632 12.888301015840348 96.97653758039726 13.891409990767073 100.5869791336288C15.773589546815549 107.36099940042959 18.20166565626225 113.94275601124971 19.90696262529041 120.77779999758326C21.56858181774532 127.43822372101417 21.987545935821178 133.98589065748934 21.585298113512184 140.8751977098452C21.16723908313456 148.03549112480707 20.911473629238348 155.30564306764956 21.39918807149662 162.4620752985951C21.632116029637796 165.88001834230215 22.742723070905477 169.06376720845697 23.503918692674677 172.3543128125364C24.266041581615035 175.64810230775538 24.866293901033497 178.98580858070474 25.767278222260806 182.23875893369126C25.974095026181484 181.81499572316423 26.000440682596945 183.23170496084037 25.999994513073762 183.33924796640605C25.994339989813767 184.15191772356985 25.880864072825624 184.83338196013017 25.61940215511865 185.60396150047106C24.947537217839418 187.5855383923137 23.690620029583858 189.2689926844991 21.777974145556442 189.81555163644094C18.321516059370772 190.80311880756312 15.112244342725514 187.6590324772904 13.997599909816588 184.33900813547282C12.398575004968116 179.57528505704886 11.517447176009759 174.31095262660085 10.755402295204126 169.30405557801924C10.056764278925332 164.71277692092576 9.891441114539434 160.09409162314518 10.099001307877526 155.43958694694118C10.507865934004727 146.26065089983462 12.168963855604828 137.20188452228177 12.618302985359 128.0257437438825C13.107352052567572 118.03571877734657 11.128040745027588 108.6492770383533 9.470824031009993 98.92482644310697C8.672583225142878 94.23919212594386 7.90974363068395 89.59776853636214 6.356304391196149 85.13366722340409C5.727369401478347 83.32599090172194 4.907367654166795 81.73071586719769 4.047594179774266 80.0614308893612C3.5583828787406606 79.11170828831241 2.5690512894750293 77.41761510263952 3.2088077173994747 76.30182233587936Z"/>
        </g>
        <g opacity="1">
          <path fill="rgb(105,161,172)" fill-opacity="1" opacity="1" fill-rule="evenodd" d="M31.252092742518393 60.69704810050942C30.85563787702361 72.14181925258488 30.17202164938363 83.49977450486602 28.646188518954 94.82394619433119C27.08893619815346 106.38028167012423 25.30032695626383 117.89694110121495 23.801953934586116 129.46349021227797C22.343377850907764 140.72245176886588 20.81454427054455 152.16840141731865 21.018367579645055 163.58449582421315C21.168479501773987 171.99346030836668 19.77414080607255 186.21869724661587 29.113369518031792 190.36896865533697C38.572085000453924 194.57187956891062 40.60102059849876 176.62337974264827 41.22211533935789 170.69907845396665C42.41233672364142 159.3328737270445 42.0270060372757 147.84685520176356 41.449376724865104 136.4185829989704C40.85636535651458 124.68940138784005 39.8664321339783 113.01993025982622 38.63954664532934 101.33356735040455C37.27683492446796 88.35282258658285 36.20760846089458 75.313545836022 35.34946331409808 62.29587485237828C34.92488997664679 55.8569634789428 34.82029496080963 49.42865857290303 34.937438867712686 42.98817587096453C35.0481710463773 36.91067005323406 34.81726078280568 30.77031109538098 32.65649414396669 24.999999999999773C32.54327730749122 25.08210191428491 32.43081289669625 25.164203828570102 32.317588748834254 25.245912910729476"/>
        </g>
        <g opacity="1">
          <path fill="rgb(137,197,204)" fill-opacity="1" opacity="1" fill-rule="evenodd" d="M80.08274655475515 96.95522508104781C78.38168442951334 99.43329530968529 76.66694376032865 101.8872533998751 75.06051008564428 104.5121884717843C72.18613928384852 109.20857543760101 69.5869206813739 114.43159342723916 68.80498444947617 121.14682398489595C67.16863551247847 135.20036467782117 68.48142312223597 150.3789558305855 68.79827345614706 164.86267899354175C68.86308198384614 167.82244398798463 68.48875181464884 170.69288446954215 69.65532028725187 173.50962064273915C70.71301898737997 176.06386330874523 72.69052543397824 178.01037048524236 74.57550643358385 177.99995842545832C78.61080358224015 177.9769422933038 77.99512883971525 168.09534955495985 78.00177868005198 163.74584858090077C78.01394712859481 156.12257680943316 77.15912324186226 148.4220365943042 77.23269698624053 140.80588886374153C77.3061571272518 133.2604335390823 77.76502031604144 125.6941540948546 78.85899944992825 118.52791694759861C79.96657004932571 111.27454730004321 81.58856237038007 104.30942730756587 83.72913466783605 97.80956198649798C84.02618432535277 96.90754880729908 86.15794163088637 89.93749678650302 84.14389686802292 91.13871968371086"/>
        </g>
        <g opacity="1">
          <path fill="rgb(105,161,172)" fill-opacity="1" opacity="1" fill-rule="evenodd" d="M62.262195022180364 21.999999999999943C59.609151281707156 21.999999999999943 59.62541602092021 35.22599728694233 59.54560532385151 36.92481318400643C59.25737901500628 43.05539403773687 59.325085720102464 49.18761507094794 59.14276934101664 55.319426059288865C58.74371585567312 68.70083035202109 58.25350418078674 82.19950747761848 56.243485013852776 95.42632485430117C55.161312481561104 102.54675402459273 53.90665806366124 109.63560973988216 52.55706295872706 116.7019129873129C51.20368535630148 123.7887184782515 49.38695181117847 130.8669130269168 48.49655190170113 138.04351834442002C47.64170746864305 144.94252328482634 48.1247323982958 151.9772530772549 48.24198982052941 158.91029174188432C48.35924724276306 165.88515498326984 48.56993235303447 172.87395975024072 49.48378374695849 179.7877263059727C49.709220597446375 181.49433305556983 49.973617172095786 183.19478913211455 50.256547984453036 184.89114475995768C50.49219757816774 186.3045694273919 50.35489291922963 188.05751124731682 50.75356815482397 189.40081824195403C51.39281023087185 191.55232367567243 54.13285141364744 192.25637071773352 55.977953689955974 191.92013392420404C60.97047212886473 191.00860417784307 64.15949576387034 184.7398382028694 65.86502388274597 180.15963700320592C68.04298593829841 174.31116702014407 69.19853892192337 167.96736283393153 70.33896191558273 161.80397839058847C71.63106305864754 154.82132429666993 72.38831905642729 147.73205853651035 72.7434955708705 140.62311062258323C73.46557434198017 126.17517962257035 72.53886245658532 111.71166691749148 71.50397114293625 97.31007098780647C70.92827502474401 89.30066453901262 70.26331196575461 81.32652194905235 69.24582014056597 73.3667309295476C68.23248906261792 65.44097363426596 66.93244467482117 57.5504801978179 66.08592173624419 49.601350344937245C65.4708876441413 43.82463821415306 64.86493154601783 38.04013523083585 64.46663456017262 32.24128067706313C64.37131562338918 30.858609374890776 64.29112667657135 21.999999999999943 62.262195022180364 21.999999999999943"/>
        </g>
        <g opacity="1">
          <path fill="rgb(137,197,204)" fill-opacity="1" opacity="1" fill-rule="evenodd" d="M58.94079274454581 118.13870277133465C58.50835494024288 104.25269501574205 52.9265288443888 43.25890782746561 51.65658063628351 26.4671322846907C51.33900912374856 22.26416961735662 48.28153871051289 4.764639080702387 47.8849121618788 -1.4210854715202004e-14C46.80956096570984 1.3467420010268134 46.901453999124236 22.309445434707982 46.913278470335634 27.126194418399695C46.925778625616275 31.890833499102122 46.33489290708045 36.576453464615824 46.03083507592996 41.31546472417594C45.72103393019104 46.151007443372 38.572296477808045 108.6008820028824 37.64458225076436 113.24720597597793C35.7989512156808 122.49073393164632 34.56380073714054 131.97644479710925 33.611086199535606 141.42755810403014C32.68303413045735 150.63947841362307 31.240110800630912 160.35797532112838 32.4820181198634 169.61816136053926C32.76749463911027 171.7499689492247 33.21918943938608 173.8476061097204 33.954671548735696 175.80599877534303C34.74927601414234 177.92200254099072 35.29387737393635 179.87868668520383 35.9317231352832 182.09293043189695C36.958087236433464 185.65946887419773 38.81486705865922 188.78948009637497 41.66794304095481 190.261798420999C47.51734002822131 193.2807557515597 50.658257424006045 186.4466701136181 52.25050693313085 180.4967443050852C54.79344392765293 170.99480248623217 56.42555879686189 161.33781234946832 57.19077100525736 151.3587659270164C58.037403143994204 140.31830057892176 59.28708083002277 129.2551973221514 58.94079274454581 118.13870277133465"/>
        </g>
      </g>
      <g transform="translate(0, 159.0000000000001)" opacity="1">
        <g opacity="1">
          <path fill="rgb(255,255,255)" fill-opacity="1" opacity="1" fill-rule="evenodd" d="M11.999999999999986 0L98.99999999999999 0C100.10383004898799 0 100.99999999999999 0.896169951012 100.99999999999999 2L100.99999999999999 89C100.99999999999999 90.103830048988 100.10383004898799 91 98.99999999999999 91L11.999999999999986 91C10.896169951011986 91 9.999999999999986 90.103830048988 9.999999999999986 89L9.999999999999986 2C9.999999999999986 0.8961699510120003 10.896169951011986 2.220446049250313e-16 11.999999999999986 0Z"/>
        </g>
        <g opacity="1">
          <path fill="rgb(197,207,214)" fill-opacity="1" opacity="1" fill-rule="evenodd" d="M2 10.000000000000192L8 10.000000000000192C9.103830048988 10.000000000000192 10 10.896169951012192 10 12.000000000000192L10 121.0000000000002C10 122.10383004898819 9.103830048988 123.0000000000002 8 123.0000000000002L2 123.0000000000002C0.8961699510120003 123.0000000000002 2.220446049250313e-16 122.10383004898819 0 121.0000000000002L0 12.000000000000192C0 10.896169951012192 0.8961699510119996 10.000000000000192 1.9999999999999996 10.000000000000192Z"/>
        </g>
        <g opacity="1">
          <path fill="rgb(197,207,214)" fill-opacity="1" opacity="1" fill-rule="evenodd" d="M51.99999999999999 10.000000000000192L57.99999999999999 10.000000000000192C59.103830048987994 10.000000000000192 59.99999999999999 10.896169951012192 59.99999999999999 12.000000000000192L59.99999999999999 121.0000000000002C59.99999999999999 122.10383004898819 59.103830048987994 123.0000000000002 57.99999999999999 123.0000000000002L51.99999999999999 123.0000000000002C50.89616995101199 123.0000000000002 49.99999999999999 122.10383004898819 49.99999999999999 121.0000000000002L49.99999999999999 12.000000000000192C49.99999999999999 10.896169951012192 50.89616995101199 10.000000000000192 51.99999999999999 10.000000000000192Z"/>
        </g>
        <g opacity="1">
          <path fill="rgb(197,207,214)" fill-opacity="1" opacity="1" fill-rule="evenodd" d="M103 10.000000000000192L109 10.000000000000192C110.103830048988 10.000000000000192 111 10.896169951012192 111 12.000000000000192L111 121.0000000000002C111 122.10383004898819 110.103830048988 123.0000000000002 109 123.0000000000002L103 123.0000000000002C101.896169951012 123.0000000000002 101 122.10383004898819 101 121.0000000000002L101 12.000000000000192C101 10.896169951012192 101.896169951012 10.000000000000192 103 10.000000000000192Z"/>
        </g>
      </g>
    </g>
  </g>
</svg>