<svg xmlns="http://www.w3.org/2000/svg" xmlns:xlink="http://www.w3.org/1999/xlink" height="820.334894613583" width="1011">
  <g opacity="1">
    <g transform="translate(0, 5.684341886080802e-14)" opacity="1">
      <g transform="translate(709.3486486486487, 107.72941176470587)" opacity="1">
        <g opacity="1">
          <ellipse fill="rgb(242,242,242)" fill-opacity="1" opacity="1" rx="53" ry="53" cx="53" cy="53"/>
        </g>
        <g opacity="1">
          <ellipse fill="rgb(0,0,0)" fill-opacity="0.1" opacity="1" rx="3" ry="3" cx="53" cy="11"/>
        </g>
        <g opacity="1">
          <ellipse fill="rgb(0,0,0)" fill-opacity="0.1" opacity="1" rx="3" ry="3" cx="11" cy="53"/>
        </g>
        <g opacity="1">
          <ellipse fill="rgb(0,0,0)" fill-opacity="0.1" opacity="1" rx="3" ry="3" cx="95" cy="53"/>
        </g>
        <g opacity="1">
          <ellipse fill="rgb(0,0,0)" fill-opacity="0.1" opacity="1" rx="3" ry="3" cx="53" cy="95"/>
        </g>
        <g opacity="1">
          <path fill="rgb(175,185,197)" fill-opacity="1" opacity="1" fill-rule="evenodd" d="M53 17.000000000000025L55.00000000000001 52.00000000000004L51 52.00000000000004L53 17.000000000000025Z"/>
        </g>
        <g transform="translate(62.2132034355966, 62.21320343559637) rotate(135.00004827116254) translate(-62.2132034355966, -62.21320343559637)" opacity="1">
          <path fill="rgb(175,185,197)" fill-opacity="1" opacity="1" fill-rule="evenodd" d="M62.2132034355966 50.2132034355964L64.21320343559661 74.2132034355964L60.2132034355966 74.2132034355964L62.2132034355966 50.2132034355964Z"/>
        </g>
        <g opacity="1">
          <ellipse fill="rgb(197,207,214)" fill-opacity="1" opacity="1" rx="4" ry="4" cx="53" cy="53"/>
        </g>
      </g>
      <g transform="translate(39.62027027027031, 284.18823529411765)" opacity="0.3458891369047619">
        <g transform="translate(360.64729729729726, 160.72941176470587) scale(-1, 1) translate(-360.64729729729726, -160.72941176470587)" opacity="1">
          <path fill="rgb(242,242,242)" fill-opacity="1" opacity="1" fill-rule="evenodd" d="M0.314656076856839 200.7776576116354C10.82875846041744 111.03858177657361 574.9551130440349 -62.16728867847389 679.6832042780085 22.83179048328219C784.411295511982 107.83086964503826 683.7282250572235 267.35190628218913 464.25682886061753 308.2011839769709C244.78543266401252 349.05046167175254 -10.19944630670389 290.51673344669723 0.314656076856839 200.7776576116354Z"/>
        </g>
        <g opacity="1">
          <path fill="rgb(221,227,233)" fill-opacity="1" opacity="1" fill-rule="evenodd" d="M244.22696851621845 259.08612211881575C253.93639368789644 182.84926638217206 774.8883901003779 35.70410318825748 871.6013122418663 107.91414631052612C968.3142343833537 180.12418943279485 943.8343069827246 332.00964846994657 741.1597446704454 366.7127079965127C538.4851823581669 401.4157675230782 234.51754334454031 335.3229778554593 244.22696851621845 259.08612211881575Z"/>
        </g>
      </g>
      <g transform="translate(52.28310810810814, 0)" opacity="1">
        <g transform="translate(0, 187.26170468187274)" opacity="1">
          <g opacity="1">
            <ellipse fill="rgb(242,242,242)" fill-opacity="1" opacity="1" rx="42.50000000000001" ry="22.5" cx="49.5" cy="34.5"/>
          </g>
          <g opacity="1">
            <path fill="rgb(221,227,233)" fill-opacity="1" opacity="1" fill-rule="evenodd" d="M99.00000000000001 50C99.00000000000001 22.38576250999992 76.8380951151 0 49.5 0C22.16190488489999 0 -1.4210854715202004e-14 22.38576250999992 -1.4210854715202004e-14 50"/>
          </g>
        </g>
        <g opacity="1">
          <rect fill="rgb(221,227,233)" fill-opacity="1" opacity="1" x="47.00000000000001" y="0" width="5" height="194.58823529411765" rx="0" ry="0"/>
        </g>
      </g>
      <g transform="translate(170.66486486486485, 0)" opacity="0.7000000000000001">
        <g transform="translate(0, 139.18823529411765)" opacity="1">
          <g opacity="1">
            <ellipse fill="rgb(242,242,242)" fill-opacity="1" opacity="1" rx="31.76767676767677" ry="18.157894736842106" cx="37" cy="27.842105263157894"/>
          </g>
          <g opacity="1">
            <path fill="rgb(221,227,233)" fill-opacity="1" opacity="1" fill-rule="evenodd" d="M74 40.35087719298245C74 18.065703078245548 57.4345357426 0 37 0C16.565464257399995 0 -7.105427357601002e-15 18.065703078245548 -7.105427357601002e-15 40.35087719298245"/>
          </g>
        </g>
        <g opacity="1">
          <rect fill="rgb(221,227,233)" fill-opacity="1" opacity="1" x="35" y="0" width="5" height="162.18823529411765" rx="0" ry="0"/>
        </g>
      </g>
      <g transform="translate(715.8972972972972, 242.14117647058828)" opacity="1">
        <g opacity="1">
          <path fill-opacity="0" stroke="rgb(203,203,203)" stroke-opacity="1" stroke-width="8" opacity="1" fill-rule="evenodd" d="M60 40.4097685390847L98.0513275973869 14.972223302506896C100.74240118855468 13.173224147087385 104.25238896062892 13.173224147087389 106.9434625517967 14.972223302506908L200.2475403598152 77.3465700036625C204.68894389285094 80.31567543096573 207.35540540540538 85.30563246585758 207.35540540540538 90.64807127053321L207.3554054054054 473.8588235294117"/>
        </g>
        <g opacity="1">
          <path fill="rgb(175,185,197)" fill-opacity="1" opacity="1" fill-rule="evenodd" d="M180.3554054054054 472.8588235294117L233.3554054054054 472.8588235294117C235.0111504788874 472.8588235294117 236.3554054054054 474.2030784559297 236.3554054054054 475.8588235294117L236.3554054054054 476.8588235294117C236.3554054054054 478.51456860289375 235.0111504788874 479.8588235294117 233.3554054054054 479.8588235294117L180.3554054054054 479.8588235294117C178.6996603319234 479.8588235294117 177.3554054054054 478.51456860289375 177.3554054054054 476.8588235294117L177.3554054054054 475.8588235294117C177.3554054054054 474.2030784559297 178.6996603319234 472.8588235294117 180.3554054054054 472.8588235294117Z"/>
        </g>
        <g transform="translate(48.08326112068528, 49.08326112068517) rotate(45.00001609038752) translate(-48.08326112068528, -49.08326112068517) translate(14.58326112068528, 14.58326112068517)" opacity="1">
          <g opacity="1">
            <path fill="rgb(197,207,214)" fill-opacity="1" opacity="1" fill-rule="evenodd" d="M33.03031191999614 1.383901642377289L33.03031191999614 1.383901642377289C51.24350772829813 1.383901642377289 66.03031191999612 16.17070583407528 66.03031191999612 34.383901642377275L66.03031191999612 62.38390164237729L0.03031191999615146 62.38390164237729L0.03031191999615146 34.383901642377275C0.03031191999615146 16.170705834075285 14.817116111694137 1.383901642377296 33.03031191999613 1.383901642377289Z"/>
          </g>
          <g opacity="1">
            <ellipse fill="rgb(242,242,242)" fill-opacity="1" opacity="1" rx="33.0000000000001" ry="6.5" cx="33.20892878170874" cy="61.44540015084247"/>
          </g>
        </g>
      </g>
      <g transform="translate(46.762162162162156, 483)" opacity="1">
        <g transform="translate(22, 0)" opacity="1">
          <g opacity="1">
            <path fill="rgb(221,227,233)" fill-opacity="1" opacity="1" fill-rule="evenodd" d="M25.25795391431566 1.1730930741178482C28.12253064970651 0.8231214358573212 31.17990407424186 0.9466599943781632 33.84387657541671 2.077366112375146C39.50854159307341 4.482008337529475 41.11873165438394 11.174143606751255 41.041051630140785 16.613518237193034C40.95730650546893 22.468041143958622 39.71405103055078 28.862660197345317 44.16511615191624 33.57979094548242C46.21118222244065 35.748455285363725 48.75632938478465 37.40811519172536 50.76542916622946 39.61660025940598C52.912185099999725 41.97666431406354 54.59662931699347 44.67704677875493 55.84383428290932 47.57682892624055C58.13385067677174 52.90317905996464 59.25783071360696 59.166897494840356 57.16373599680718 64.75427376156289C55.31992236033457 69.6736307289984 50.681093450489115 74.11377191172305 51.68343187514471 79.70755683286646C52.728958999068986 85.54291642628708 58.61220995193971 90.00409774530365 62.29044398023519 94.35052451917028C66.45316556171039 99.26931821363026 70.28590180295654 105.55598727968288 70.91553385733955 112.00646889942024C71.5192882185564 118.18832363531833 68.82840742150253 124.44038081696782 64.69876900305805 129.11335761869492C56.44774095951668 138.45073820428945 44.04516611632018 143.0282309564068 31.53956402381311 142.99986901911814C26.230025889228187 142.98756874133392 20.21855074519471 142.74776848447686 15.636562335049863 139.89451397403525C14.22043242590216 139.0125943429847 13.473332907150313 138.02315992748504 12.631483358699487 136.6477056965296C11.876674919878448 135.4143233258377 10.879578742569958 134.6120601352469 9.725459946171798 133.73931858459957C7.189864839601238 131.8223941418393 5.35871536721105 129.23884354956726 4.190121771359825 126.34682932139948C-0.34777978906915874 115.11402319671141 3.2791667521940067 101.21766464089644 9.631201803793061 91.24284545955229C11.136353664252116 88.8796069027785 12.36864533333361 86.60546293046957 11.6374364432698 83.78862160995722C10.874397788977907 80.8481806198472 8.999014490101885 78.19606289050162 7.340259210580872 75.66850393825355C5.701145373020795 73.17048749188568 3.829878644544424 70.78741369662802 2.5487575647037417 68.0865101562474C1.2069928946870208 65.25712136736203 0.8291627138827194 62.294275704706045 1.066237497006628 59.19774515319189C1.5118033080182092 53.381114731666884 4.022732411190336 48.01348053297358 7.577661531820494 43.335625171906365C11.001716099250793 38.82982723772527 15.022127709027385 34.518476363015836 15.031136249109155 28.614523591726027C15.041028842747448 22.357137869603665 10.857731453820895 16.79080731631883 12.639877949748621 10.428979136559796C13.377803226485183 7.794661430314529 14.859954257757002 5.091835566939727 17.24854987881944 3.512523028122083C19.53925778729449 1.9978461646090475 22.5638535899628 1.5022372344070571 25.25795391431566 1.1730930741178482Z"/>
          </g>
          <g opacity="1">
            <path fill="rgb(197,207,214)" fill-opacity="1" opacity="1" fill-rule="evenodd" d="M23.38615969024985 11.176430946353006C23.439877761941062 10.33604025454921 24.436748987192804 9.832005148802788 25.221507749433513 10.051301083538277C26.25446641411084 10.340097201340761 26.234600726055447 11.30527157491163 26.207329304476172 12.165166359345056C26.123730380637184 14.808278373855671 26.506296279204733 17.376951737329595 27.14165586920913 19.94151991707231C28.462182361363944 25.27354256669102 30.902692941817378 30.186125389418073 32.83618946174109 35.30795583811722C34.7680008580644 40.425498615085246 35.67483385185041 45.70920675844162 34.54155226099455 51.12429761870942C33.473205772783025 56.22997319440108 31.794800770305834 61.203315557028596 30.701451264342033 66.31543567675332C29.737752394571537 70.82111294887196 28.71233062802176 75.57260236662503 30.17992083844151 80.06680632265198C31.592103508029616 84.39280439485111 34.71424504751933 87.91585664968665 36.96245764126215 91.82529374149519C41.6165172055851 99.91807754942727 43.681266950839 108.89605409545914 43.95743654650689 118.13518360697856C44.085423265334164 122.42548053867333 43.970168036363354 126.75522887233728 42.97486816512222 130.96307640106718C42.402006822585534 133.38596594848346 41.63217755494 136.66039353766635 39.555923737122 138.33316317971594C38.59850988433253 139.10456510318656 36.9610281770901 139.37130427008447 36.155219576881144 138.2289455984017C35.39868263705114 137.1575039735852 36.062371253741844 135.49880468212632 36.30254569265404 134.3568159815491C37.34267535937484 129.41333192040346 37.551925976867814 124.36128736728739 37.30290403134904 119.34169617365478C37.06189100925149 114.47956260685274 36.4874288763245 109.62554915590508 34.95718166119045 104.98200968473185C33.536906965919314 100.67273814534946 31.37924697444715 96.80217487173212 28.839811297513666 93.03247818770069C26.252144168951617 89.19089381450988 23.56203699330224 85.34111313306664 22.49282213788246 80.78923115368741C21.406468417767492 76.16613431563906 22.289021832363606 71.46198477019 23.469116814886863 66.92717919831058C24.717096040176948 62.130634123541384 26.351753561999406 57.471687602705536 28.0416980695942 52.80510228583093C29.688607028049905 48.25786285073308 30.272355520004453 43.955365683360554 29.363192801932296 39.19615130353433C27.567185525911956 29.79352979062656 22.75980219103761 20.968116643205775 23.38615969024985 11.176430946353006Z"/>
          </g>
        </g>
        <g transform="translate(32, 11)" opacity="1">
          <g opacity="1">
            <path fill="rgb(221,227,233)" fill-opacity="1" opacity="1" fill-rule="evenodd" d="M90.89233227727925 1.5822734872767241C94.43718154705532 2.658604836253245 97.95788298915213 4.395218883614802 100.48481335105242 7.118279660186273C105.85790772152733 12.908958036618316 104.2092951913856 21.660909166855046 101.24313808066304 28.053244985578146C98.05043565007927 34.93339081318264 93.21226705017561 41.849065221966505 95.9396344782312 49.74321116838732C97.19319604508634 53.37233972480252 99.30117113003101 56.65913948444661 100.49032714619446 60.316130383745026C101.76082145643542 64.22399437051457 102.30919012088263 68.29382290288217 102.23932494999552 72.37200506631832C102.1099839963429 79.862403853735 100.11753959202933 87.85476068821673 94.7080977583534 93.37314303794935C89.94530062293661 98.23171011439729 82.15751985131135 101.06951453794468 80.3765030792643 108.20630978625039C78.51845525427314 115.65126528891497 83.0609213299171 123.98777388539504 85.07777365941787 131.04147157591936C87.36035104551144 139.02410663112212 88.53288121383802 148.45276111494874 85.86189920354816 156.40881808667976C83.30255112650347 164.03372772410478 76.84181275138023 170.02771762647808 69.52819446223893 173.4057718384955C54.91516428006238 180.1560327943875 37.948672055031565 179.117398294247 23.29581816554562 172.57816248852296C17.074752056310363 169.80147522827468 10.15063048420804 166.39057719217885 6.284528955923512 160.63259080832378C5.089696536040857 158.85290709666924 4.736399373715905 157.29411817900478 4.476005075834776 155.22952104398033C4.24260769510143 153.37822254111973 3.4971573937003475 151.91073334979814 2.6047871323022096 150.2782079239504C0.6439958981107383 146.69212958801947 -0.1381965183637579 142.68415012483962 0.01976625480085191 138.6560499009527C0.6344858005140653 123.01112157432163 12.233623777168843 108.46374328814174 24.95624713923537 99.9717320993786C27.970760478486266 97.95991807230207 30.61814356978883 95.91152164961197 31.249382178850823 92.19986019046354C31.908617669022743 88.32546797316363 31.110785286358443 84.21338779325056 30.501199306474017 80.36130882746588C29.899035769593542 76.55438551975433 28.963825353759614 72.7626252653351 28.88879059920261 68.90199822248087C28.810539264216995 64.85787301061293 29.933428775173915 61.15737851514389 31.848202245583312 57.61867210486438C35.44525633723788 50.97156614440449 41.227456750705045 45.929903093400846 47.8695760112179 42.24710272376006C54.267249258307274 38.699698094229916 61.26161353344761 35.692489930258944 64.39278402106821 28.71500740719007C67.71180260040417 21.320005736756613 65.74735510685555 12.560872659973807 71.20025802390558 5.9643207721007645C73.45817192016925 3.232793003918277 76.6252004461886 0.8074085996436755 80.26155327741706 0.18227321181406353C83.74892946705468 -0.4173457158426017 87.55844373119955 0.5699966644690501 90.89233227727925 1.5822734872767241Z"/>
          </g>
          <g opacity="1">
            <path fill="rgb(197,207,214)" fill-opacity="1" opacity="1" fill-rule="evenodd" d="M83.65125407120371 13.810881293658518C84.15420142227592 12.843816216349467 85.58382780642734 12.769409951146837 86.38660207282697 13.440423374998053C87.44319959195165 14.323830329057099 86.91448368434602 15.456411688911528 86.43224583255463 16.460435678024535C84.95022675291561 19.54668552743746 84.05228368626378 22.789113365169385 83.45208446422268 26.159176401501536C82.20366934340524 33.165673075314835 82.48453280836114 40.262471316813304 82.06295194486513 47.341326813912666C81.6416462163414 54.414221475352235 79.93479926020484 61.14667332301943 75.77362011647637 66.96542841121833C71.85041893933737 72.45179741986003 67.28317738254677 77.46170293163007 63.32736478569744 82.942598970561C59.84076360776431 87.77327774474922 56.15325113253265 92.86270512927084 55.51558621411215 98.9541078101085C54.90122655061285 104.81727440433755 56.706860104473876 110.62580458958539 57.28824123594499 116.43385314934103C58.49187318581719 128.45694458485167 56.20420439449244 140.17117811557 51.68836077381903 151.25723008366074C49.59107726912444 156.40503278515197 47.188707127593155 161.47206488051046 43.821135765669254 165.9334801348382C41.88235410339251 168.50249776182994 39.26728363973701 171.9767000371341 35.96342932858616 172.86942642861362C34.43991387327776 173.28113869993456 32.38549412355441 172.73876770763493 32.04153793223499 170.96359796464756C31.718054428388605 169.2982354360961 33.36281500428165 167.6818041612483 34.24174207996536 166.45530341205247C38.04700519153808 161.1462180429519 40.9375701696673 155.2730830537755 43.27527640535796 149.19818618035535C45.53988291233339 143.31395390130186 47.41033177016255 137.26456714069235 48.05294218235892 130.96347566994683C48.64907965219889 125.11587595458789 48.15322323897598 119.40132445794106 47.15812676672296 113.60612273041194C46.14428228257897 107.7005095239688 45.014946382448464 101.73149808058986 46.14864252798371 95.780591436246C47.29959511419434 89.7363666533764 50.79525727191344 84.62811925849242 54.550147543498966 79.87636537078703C58.52149519663169 74.85023047905844 62.872925210153 70.18971426215424 67.29300341025 65.54912946910386C71.60025524435335 61.02732206857797 74.53616647677991 56.23811303736491 75.96559831462886 50.12556413836367C78.78990755752685 38.04930698169166 77.79068973093939 25.07824847029392 83.65125407120371 13.810881293658518Z"/>
          </g>
        </g>
        <g transform="translate(0, 57)" opacity="1">
          <g opacity="1">
            <path fill="rgb(197,207,214)" fill-opacity="1" opacity="1" fill-rule="evenodd" d="M13.305976512804842 -1.5631940186722204e-13C19.20026599832459 -1.5631940186722204e-13 24.38233192731624 3.1243611937899187 27.953089383288106 7.557933667927452C32.133000042474784 12.748060046530272 32.977212972310504 19.086236150914665 34.67453699198026 25.27194255985582C35.5191206784826 28.350309332455545 36.97174529819989 31.406222135655057 39.517360571037955 33.497700737039104C41.83273595392077 35.39976924170884 44.77209480668214 35.780400239120624 47.54350088947616 36.709704843648886C53.082234731731795 38.56686540951817 57.554672400861534 43.040637732097856 59.32095716051786 48.49948742190868C61.47579490676523 55.15817583144031 59.19341686720936 61.87336132526879 59.58641893379959 68.62150345160397C59.947165170396076 74.81879900604221 66.05760579254039 78.68522767242742 70.97383919158378 81.65603268838434C75.82148260730722 84.58555137350922 80.1886253831241 87.32783292670028 81.64866513617332 93.03476276230275C83.19694497587204 99.0875561588278 83.71637506577102 105.84366582269168 81.5719185061883 111.82294057747056C78.00153180688304 121.77874088085456 67.55249667224956 126.16269732583335 57.456051127547454 126.84247314138274C48.2931708693303 127.45923297829314 36.77190745490548 126.49081500771264 29.890663722911043 119.83973197491375C25.77304018371226 115.85958481834092 24.281856870669145 110.29317337188729 24.46686444729981 104.75501046758208C24.581799013944124 101.31122345103468 25.263991280478006 97.89930658460408 26.146021390306394 94.57141102302549C26.77111713018474 92.21265775362066 27.615700816687085 89.8640449865257 27.856321893306966 87.42670282421975C28.49587714318253 80.94221375793832 22.502595627682 79.6967427778238 17.40098389534133 77.91636030087108C10.918303579936039 75.65357964261199 6.379871224152444 71.3797200798531 3.223990478099875 65.42543442005227C0.28500238200512035 59.88147694299817 -0.9481342910882631 53.658105811192 0.8137013885688648 47.55424774232236C1.7135278183938045 44.43749192526434 3.3455986647428655 41.60974042403406 5.559015964312175 39.20463057264157C6.533364484122668 38.14603456366424 7.906647177188753 37.26308654112364 8.786081990350958 36.15089073422323C9.606937250191228 35.11221356906832 9.4282325368927 33.7664240482471 9.145345200281032 32.54992593187497C7.83731568053556 26.930639009091525 3.76195840132856 22.277597092108085 2.3045139449454446 16.668450671635185C0.9886985352015165 11.605442732700267 1.7665460217168445 5.304207029587619 6.395443004149438 2.0378788034608024C8.395304463760358 0.6265381784227883 10.861577809947125 0.015572914261275512 13.305976512804842 -1.5631940186722204e-13Z"/>
          </g>
          <g opacity="1">
            <path fill="rgb(175,185,197)" fill-opacity="1" opacity="1" fill-rule="evenodd" d="M21.337691275241678 14.641376723724825C27.585006853559563 21.29602292228536 29.28310269867277 30.324974452968217 29.78146091182599 39.07615109198896C30.060615069599667 43.98338679215166 29.770059358609956 49.1593434435704 31.211804152381646 53.91918099392047C32.44537865195058 57.99309201909616 35.33732745639621 61.107285361213876 38.31828193433486 64.05054030846318C44.318809054331076 69.9754389102827 51.01078520807495 75.99884438372275 52.765888819268504 84.57365026363075C53.79570652910538 89.60583034139862 53.10057957496543 94.80351644979261 54.52356697473659 99.78028641227503C55.81745936873882 104.30399719683093 58.09556325971377 108.74839546342814 60.866508483253554 112.56843399961429C63.09753499320743 115.64460079202581 66.00419547922215 117.99971177048768 68.44302449133946 120.86727577594071C69.18706778669666 121.74261073441244 70.25292911637791 123.03116753302332 69.94582276362294 124.26684931966219C69.58648994129769 125.71403115418977 67.74311624068962 126.17216053874382 66.43524774919675 125.94472555574029C63.3858839519617 125.41488896316918 60.81906331019322 122.50314172853409 58.82526266554108 120.38633046156306C55.909775170584865 117.29096931549039 53.432327994348654 113.96165434932085 51.41866657957822 110.22708501056992C49.18322656515363 106.07965598929532 47.38325232517444 101.67871663664793 46.61419917114979 97.02571558309155C45.81609044602618 92.19851671611909 46.21330584839184 87.16778526881632 44.39089629401966 82.53506504176943C41.32424627094103 74.73998450964422 33.886020069604584 70.13985846805984 28.508164872020483 64.06430229788C21.80772950137444 56.49375948782879 22.807020471955493 47.07150478590016 23.493320417153935 37.75898384169476C23.87030725736205 32.64133456649167 24.245087345334895 26.862023326403556 21.65914151752655 22.189465761569245C20.671987684239955 20.40583950154712 18.47112012150281 18.742811727735514 18.046688108234278 16.715453391978244C17.65793192277087 14.85794697824175 19.779724197074103 12.980884053227326 21.337691275241678 14.641376723724825Z"/>
          </g>
        </g>
        <g opacity="1">
          <path fill="rgb(137,197,204)" fill-opacity="1" opacity="1" fill-rule="evenodd" d="M28.000379887518065 181C28.000379887517997 219.05848951437378 34.21122896629399 239 67.00009305574793 239C99.78895714520186 239 105.99980622397771 219.05848951437378 105.99980622397779 181L28.000379887518065 181Z"/>
        </g>
      </g>
      <g transform="translate(207.3277027027027, 465)" opacity="1">
        <g transform="translate(23, 0)" opacity="1">
          <g opacity="1">
            <path fill="rgb(175,185,197)" fill-opacity="1" opacity="1" fill-rule="evenodd" d="M22.99999999999999 143.9999999999999L56.999999999999986 143.9999999999999C58.10383004898799 143.9999999999999 58.999999999999986 144.8961699510119 58.999999999999986 145.9999999999999L58.999999999999986 150.9999999999999C58.999999999999986 152.10383004898787 58.10383004898799 152.9999999999999 56.999999999999986 152.9999999999999L22.99999999999999 152.9999999999999C21.89616995101199 152.9999999999999 20.99999999999999 152.10383004898787 20.99999999999999 150.9999999999999L20.99999999999999 145.9999999999999C20.99999999999999 144.8961699510119 21.896169951011988 143.9999999999999 22.99999999999999 143.9999999999999Z"/>
          </g>
          <g opacity="1">
            <path fill="rgb(221,227,233)" fill-opacity="1" opacity="1" fill-rule="evenodd" d="M23.5 115C14.945317268371582 115 8 121.94532012939453 8 130.5L8 130.5C8 139.0546875 14.945317268371582 146 23.5 146L56.5 146C65.0546875 146 72 139.0546875 72 130.5L72 130.5C72 121.94532012939453 65.0546875 115 56.5 115L23.5 115Z"/>
          </g>
          <g opacity="1">
            <path fill="rgb(197,207,214)" fill-opacity="1" opacity="1" fill-rule="evenodd" d="M4.622222222222195 1.6786150417650139C4.622222222222195 1.6786150417650139 21.81111111111092 2.189585514285704e-15 38.99999999999973 0C56.18888888888854 0 73.37777777777735 1.6786150417650139 73.37777777777735 1.6786150417650139L77.99999999999955 81.133060351967C77.99999999999955 81.133060351967 58.49999999999958 82.99999999999999 38.999999999999716 82.99999999999999C19.499999999999847 82.99999999999999 2.524354896707238e-29 81.133060351967 2.524354896707238e-29 81.133060351967L4.622222222222195 1.6786150417650139Z"/>
          </g>
        </g>
        <g opacity="1">
          <path fill="rgb(242,242,242)" fill-opacity="1" opacity="1" fill-rule="evenodd" d="M0 257L0 153L125 153L125 257L104 257L104 175L21 175L21 257L0 257Z"/>
        </g>
      </g>
      <g transform="translate(753.9831081081081, 440)" opacity="1">
        <g transform="translate(13, 0)" opacity="1">
          <g opacity="1">
            <path fill="rgb(193,222,226)" fill-opacity="1" opacity="1" fill-rule="evenodd" d="M3.3809241294989993 0.2081870062726843C12.213924980603204 21.19722499300404 27.22920057570914 35.78053393673593 35.18189505437382 57.60488329825348C39.89776674701178 70.54736358098509 41.863552041316154 84.61950647499823 41.982784390793455 99.0319481155938C42.047562139102546 106.86025514667995 41.91129659684277 114.69358768668185 41.87464942449262 122.521894717768C41.83903456685653 130.1560017257517 41.63153930932461 137.7412895042679 40.98350374755512 145.32657728278406C40.33237124164335 152.9520691326265 39.60329897481785 160.48674285706238 39.28173294137906 168.15925911175952C39.03139662321243 174.13746093199558 38.91706776862706 181.09097044681442 36.89063398486996 186.54400658535207C35.279190716176714 190.88066181474272 31.183482088027812 191.51602972766563 30.096712772770406 186.25647568238531C29.492808665028214 183.3327063881723 29.568941875192312 180.06827938245436 29.63552617425108 177.0633840157439C29.720950216841935 173.20810074749988 29.945220588477813 169.3585609180168 30.059549443063197 165.50399557961788C30.519187569511423 150.0361970667097 29.923283900803444 134.56552683442106 30.234784865779826 119.09162591782948C30.53905962775764 103.9731002745676 32.48239207703055 88.87108701774326 30.33208052758275 73.85343051771946C28.55649921934933 61.45191037327872 24.045541997458045 50.802498015830444 18.86151558198061 40.593176653434945C13.873887040858635 30.77081947755406 8.445460116820591 21.18717397517248 5.074952575319367 10.014390760638552C4.10715753086074 6.8056033179166775 3.3589874418245986 3.4805112402868574 3.000000000000057 0.03014040468525895C3.156911836541633 -0.04272947459345922 3.2838865463745943 0.01649973762815337 3.3809241294989993 0.2081870062726843Z"/>
          </g>
          <g opacity="1">
            <path fill="rgb(137,197,204)" fill-opacity="1" opacity="1" fill-rule="evenodd" d="M0.9735884035922563 41.616955671644284C2.722664404331668 42.87999191698562 3.7000118365092503 44.727577252814584 4.882226326585639 46.55054999535983C6.352382406295915 48.81695962689958 8.080783749816163 50.86308654855029 9.550563926667921 53.131137019642274C12.615299932261822 57.85962639932707 15.30789210791116 62.878544379759404 18.101602152505034 67.79860177716893C23.40559148636123 77.13744008877683 27.43263880979153 87.09077281270083 29.42717937715095 97.89488084446437C31.494645099065142 109.09155973910276 32.05210903826494 120.64840291545912 32.91931693289332 132.01203723453855C33.83915122771587 144.056209757912 34.7653758711334 156.18816719733056 34.8871683972971 168.27869343805497C34.94167431178392 173.6955150099069 35.234502638578675 179.44583722075285 34.58419069332202 184.82450927301517C34.179343314685376 188.17305258926112 32.66821382339537 191.0268827805049 29.26140621653931 190.99980892789284C22.024900286981076 190.94237954356424 18.627490251588263 182.92728854073076 17.208081057779594 176.35367508454536C15.118812970070671 166.67436256584645 14.701936699961006 156.39286193147325 15.032731215467317 146.49408712266143C15.432315954084508 134.55821000973623 17.503916607442513 122.8015946178939 18.400444925036208 110.91166101243161C19.34997554568265 98.3247808071528 18.813562166560576 85.96023436120336 14.486168459164846 74.10886048521883C12.299917433955292 68.11979611952107 9.762573138878784 62.274305214644826 7.484225913329287 56.325031208089044C6.514020635463773 53.79198514930933 5.719361992531649 51.19002382933529 4.408964627696547 48.83131697298172C2.9512133423178035 46.20761452894042 1.1416169813550612 43.82593591885541 -3.382515928775249e-14 40.999999999999794C0.32440416691116425 41.205925363806664 0.6491842366809716 41.41144051772549 0.9735884035922563 41.616955671644284Z"/>
          </g>
          <g opacity="1">
            <path fill="rgb(193,222,226)" fill-opacity="1" opacity="1" fill-rule="evenodd" d="M84.33414273958422 16.5176701976516C84.55601332832302 16.345236963978696 84.7781570606937 16.172840154558294 84.99999999999996 15.999999999999886C84.36093972979278 18.69265752508504 83.20655889023593 20.879893834404104 82.32415365534602 23.341306566548425C81.53095919083174 25.55412671367199 81.12891390282174 28.058225020390697 80.59466543403035 30.476950492405663C79.34014159935198 36.157756699834195 77.89042649583685 41.71051561322601 76.70550484593868 47.43971708842204C74.35989510735432 58.776752395506435 74.80352833719662 70.99018431733535 76.3418843366093 83.56815242944116C77.79475069819492 95.44962613750178 80.0924779877826 107.31271277126365 81.18734520433422 119.19160875662212C82.09492005472794 129.04306998645546 82.4850091415969 139.2017405641147 81.61929284299582 148.60099978227308C81.03098464355116 154.984368994492 79.10255475826897 162.60599378135927 73.84813761971017 161.96175941941286C71.37446174568547 161.65850319695917 70.0840672436574 158.68112910138873 69.56418923499906 155.32020499319194C68.72911139350728 149.92164438582304 68.55430053884179 144.24580190586434 68.22879561008111 138.87769312968405C67.5023547750446 126.89590840879076 67.3576487197523 114.95097257892904 67.21421620125913 103.09249860626703C67.07841398271107 91.90400698726359 66.70451852873764 80.49384204709348 67.45211724608133 69.58726986688593C68.1731866056694 59.06305466909008 70.42848850621692 49.57973932134417 73.65307817437278 40.829724645976924C75.35145435448226 36.219820590476125 76.96969138437262 31.50205047763695 78.87791640808462 27.108440361747952C79.7930342971249 25.000993613398943 80.91103334791325 23.13875094985319 81.82653497831527 21.03296830929865C82.56269762309616 19.33916616849486 83.14833802250558 17.60109755692019 84.33414273958422 16.5176701976516Z"/>
          </g>
          <g opacity="1">
            <path fill="rgb(193,222,226)" fill-opacity="1" opacity="1" fill-rule="evenodd" d="M3.2088077173994747 76.30182233587936C4.165721589851335 74.69532515677653 6.272065165919056 79.99340925400706 6.592632705245478 80.65977507058392C6.45704991637625 80.32830838020561 6.320927874339165 79.99731724387425 6.183602061092681 79.6666140407486C8.082987670476506 82.82492672359055 9.82062483932728 86.11272943122871 10.900982901151952 89.73415190816938C11.97005029837635 93.31911277014632 12.888301015840348 96.97653758039726 13.891409990767073 100.5869791336288C15.773589546815549 107.36099940042959 18.20166565626225 113.94275601124971 19.90696262529041 120.77779999758326C21.56858181774532 127.43822372101417 21.987545935821178 133.98589065748934 21.585298113512184 140.8751977098452C21.16723908313456 148.03549112480707 20.911473629238348 155.30564306764956 21.39918807149662 162.4620752985951C21.632116029637796 165.88001834230215 22.742723070905477 169.06376720845697 23.503918692674677 172.3543128125364C24.266041581615035 175.64810230775538 24.866293901033497 178.98580858070474 25.767278222260806 182.23875893369126C25.974095026181484 181.81499572316423 26.000440682596945 183.23170496084037 25.999994513073762 183.33924796640605C25.994339989813767 184.15191772356985 25.880864072825624 184.83338196013017 25.61940215511865 185.60396150047106C24.947537217839418 187.5855383923137 23.690620029583858 189.2689926844991 21.777974145556442 189.81555163644094C18.321516059370772 190.80311880756312 15.112244342725514 187.6590324772904 13.997599909816588 184.33900813547282C12.398575004968116 179.57528505704886 11.517447176009759 174.31095262660085 10.755402295204126 169.30405557801924C10.056764278925332 164.71277692092576 9.891441114539434 160.09409162314518 10.099001307877526 155.43958694694118C10.507865934004727 146.26065089983462 12.168963855604828 137.20188452228177 12.618302985359 128.0257437438825C13.107352052567572 118.03571877734657 11.128040745027588 108.6492770383533 9.470824031009993 98.92482644310697C8.672583225142878 94.23919212594386 7.90974363068395 89.59776853636214 6.356304391196149 85.13366722340409C5.727369401478347 83.32599090172194 4.907367654166795 81.73071586719769 4.047594179774266 80.0614308893612C3.5583828787406606 79.11170828831241 2.5690512894750293 77.41761510263952 3.2088077173994747 76.30182233587936Z"/>
          </g>
          <g opacity="1">
            <path fill="rgb(105,161,172)" fill-opacity="1" opacity="1" fill-rule="evenodd" d="M31.252092742518393 60.69704810050942C30.85563787702361 72.14181925258488 30.17202164938363 83.49977450486602 28.646188518954 94.82394619433119C27.08893619815346 106.38028167012423 25.30032695626383 117.89694110121495 23.801953934586116 129.46349021227797C22.343377850907764 140.72245176886588 20.81454427054455 152.16840141731865 21.018367579645055 163.58449582421315C21.168479501773987 171.99346030836668 19.77414080607255 186.21869724661587 29.113369518031792 190.36896865533697C38.572085000453924 194.57187956891062 40.60102059849876 176.62337974264827 41.22211533935789 170.69907845396665C42.41233672364142 159.3328737270445 42.0270060372757 147.84685520176356 41.449376724865104 136.4185829989704C40.85636535651458 124.68940138784005 39.8664321339783 113.01993025982622 38.63954664532934 101.33356735040455C37.27683492446796 88.35282258658285 36.20760846089458 75.313545836022 35.34946331409808 62.29587485237828C34.92488997664679 55.8569634789428 34.82029496080963 49.42865857290303 34.937438867712686 42.98817587096453C35.0481710463773 36.91067005323406 34.81726078280568 30.77031109538098 32.65649414396669 24.999999999999773C32.54327730749122 25.08210191428491 32.43081289669625 25.164203828570102 32.317588748834254 25.245912910729476"/>
          </g>
          <g opacity="1">
            <path fill="rgb(137,197,204)" fill-opacity="1" opacity="1" fill-rule="evenodd" d="M80.08274655475515 96.95522508104781C78.38168442951334 99.43329530968529 76.66694376032865 101.8872533998751 75.06051008564428 104.5121884717843C72.18613928384852 109.20857543760101 69.5869206813739 114.43159342723916 68.80498444947617 121.14682398489595C67.16863551247847 135.20036467782117 68.48142312223597 150.3789558305855 68.79827345614706 164.86267899354175C68.86308198384614 167.82244398798463 68.48875181464884 170.69288446954215 69.65532028725187 173.50962064273915C70.71301898737997 176.06386330874523 72.69052543397824 178.01037048524236 74.57550643358385 177.99995842545832C78.61080358224015 177.9769422933038 77.99512883971525 168.09534955495985 78.00177868005198 163.74584858090077C78.01394712859481 156.12257680943316 77.15912324186226 148.4220365943042 77.23269698624053 140.80588886374153C77.3061571272518 133.2604335390823 77.76502031604144 125.6941540948546 78.85899944992825 118.52791694759861C79.96657004932571 111.27454730004321 81.58856237038007 104.30942730756587 83.72913466783605 97.80956198649798C84.02618432535277 96.90754880729908 86.15794163088637 89.93749678650302 84.14389686802292 91.13871968371086"/>
          </g>
          <g opacity="1">
            <path fill="rgb(105,161,172)" fill-opacity="1" opacity="1" fill-rule="evenodd" d="M62.262195022180364 21.999999999999943C59.609151281707156 21.999999999999943 59.62541602092021 35.22599728694233 59.54560532385151 36.92481318400643C59.25737901500628 43.05539403773687 59.325085720102464 49.18761507094794 59.14276934101664 55.319426059288865C58.74371585567312 68.70083035202109 58.25350418078674 82.19950747761848 56.243485013852776 95.42632485430117C55.161312481561104 102.54675402459273 53.90665806366124 109.63560973988216 52.55706295872706 116.7019129873129C51.20368535630148 123.7887184782515 49.38695181117847 130.8669130269168 48.49655190170113 138.04351834442002C47.64170746864305 144.94252328482634 48.1247323982958 151.9772530772549 48.24198982052941 158.91029174188432C48.35924724276306 165.88515498326984 48.56993235303447 172.87395975024072 49.48378374695849 179.7877263059727C49.709220597446375 181.49433305556983 49.973617172095786 183.19478913211455 50.256547984453036 184.89114475995768C50.49219757816774 186.3045694273919 50.35489291922963 188.05751124731682 50.75356815482397 189.40081824195403C51.39281023087185 191.55232367567243 54.13285141364744 192.25637071773352 55.977953689955974 191.92013392420404C60.97047212886473 191.00860417784307 64.15949576387034 184.7398382028694 65.86502388274597 180.15963700320592C68.04298593829841 174.31116702014407 69.19853892192337 167.96736283393153 70.33896191558273 161.80397839058847C71.63106305864754 154.82132429666993 72.38831905642729 147.73205853651035 72.7434955708705 140.62311062258323C73.46557434198017 126.17517962257035 72.53886245658532 111.71166691749148 71.50397114293625 97.31007098780647C70.92827502474401 89.30066453901262 70.26331196575461 81.32652194905235 69.24582014056597 73.3667309295476C68.23248906261792 65.44097363426596 66.93244467482117 57.5504801978179 66.08592173624419 49.601350344937245C65.4708876441413 43.82463821415306 64.86493154601783 38.04013523083585 64.46663456017262 32.24128067706313C64.37131562338918 30.858609374890776 64.29112667657135 21.999999999999943 62.262195022180364 21.999999999999943"/>
          </g>
          <g opacity="1">
            <path fill="rgb(137,197,204)" fill-opacity="1" opacity="1" fill-rule="evenodd" d="M58.94079274454581 118.13870277133465C58.50835494024288 104.25269501574205 52.9265288443888 43.25890782746561 51.65658063628351 26.4671322846907C51.33900912374856 22.26416961735662 48.28153871051289 4.764639080702387 47.8849121618788 -1.4210854715202004e-14C46.80956096570984 1.3467420010268134 46.901453999124236 22.309445434707982 46.913278470335634 27.126194418399695C46.925778625616275 31.890833499102122 46.33489290708045 36.576453464615824 46.03083507592996 41.31546472417594C45.72103393019104 46.151007443372 38.572296477808045 108.6008820028824 37.64458225076436 113.24720597597793C35.7989512156808 122.49073393164632 34.56380073714054 131.97644479710925 33.611086199535606 141.42755810403014C32.68303413045735 150.63947841362307 31.240110800630912 160.35797532112838 32.4820181198634 169.61816136053926C32.76749463911027 171.7499689492247 33.21918943938608 173.8476061097204 33.954671548735696 175.80599877534303C34.74927601414234 177.92200254099072 35.29387737393635 179.87868668520383 35.9317231352832 182.09293043189695C36.958087236433464 185.65946887419773 38.81486705865922 188.78948009637497 41.66794304095481 190.261798420999C47.51734002822131 193.2807557515597 50.658257424006045 186.4466701136181 52.25050693313085 180.4967443050852C54.79344392765293 170.99480248623217 56.42555879686189 161.33781234946832 57.19077100525736 151.3587659270164C58.037403143994204 140.31830057892176 59.28708083002277 129.2551973221514 58.94079274454581 118.13870277133465"/>
          </g>
        </g>
        <g transform="translate(0, 159.0000000000001)" opacity="1">
          <g opacity="1">
            <path fill="rgb(255,255,255)" fill-opacity="1" opacity="1" fill-rule="evenodd" d="M11.999999999999986 0L98.99999999999999 0C100.10383004898799 0 100.99999999999999 0.896169951012 100.99999999999999 2L100.99999999999999 89C100.99999999999999 90.103830048988 100.10383004898799 91 98.99999999999999 91L11.999999999999986 91C10.896169951011986 91 9.999999999999986 90.103830048988 9.999999999999986 89L9.999999999999986 2C9.999999999999986 0.8961699510120003 10.896169951011986 2.220446049250313e-16 11.999999999999986 0Z"/>
          </g>
          <g opacity="1">
            <path fill="rgb(197,207,214)" fill-opacity="1" opacity="1" fill-rule="evenodd" d="M2 10.000000000000192L8 10.000000000000192C9.103830048988 10.000000000000192 10 10.896169951012192 10 12.000000000000192L10 121.0000000000002C10 122.10383004898819 9.103830048988 123.0000000000002 8 123.0000000000002L2 123.0000000000002C0.8961699510120003 123.0000000000002 2.220446049250313e-16 122.10383004898819 0 121.0000000000002L0 12.000000000000192C0 10.896169951012192 0.8961699510119996 10.000000000000192 1.9999999999999996 10.000000000000192Z"/>
          </g>
          <g opacity="1">
            <path fill="rgb(197,207,214)" fill-opacity="1" opacity="1" fill-rule="evenodd" d="M51.99999999999999 10.000000000000192L57.99999999999999 10.000000000000192C59.103830048987994 10.000000000000192 59.99999999999999 10.896169951012192 59.99999999999999 12.000000000000192L59.99999999999999 121.0000000000002C59.99999999999999 122.10383004898819 59.103830048987994 123.0000000000002 57.99999999999999 123.0000000000002L51.99999999999999 123.0000000000002C50.89616995101199 123.0000000000002 49.99999999999999 122.10383004898819 49.99999999999999 121.0000000000002L49.99999999999999 12.000000000000192C49.99999999999999 10.896169951012192 50.89616995101199 10.000000000000192 51.99999999999999 10.000000000000192Z"/>
          </g>
          <g opacity="1">
            <path fill="rgb(197,207,214)" fill-opacity="1" opacity="1" fill-rule="evenodd" d="M103 10.000000000000192L109 10.000000000000192C110.103830048988 10.000000000000192 111 10.896169951012192 111 12.000000000000192L111 121.0000000000002C111 122.10383004898819 110.103830048988 123.0000000000002 109 123.0000000000002L103 123.0000000000002C101.896169951012 123.0000000000002 101 122.10383004898819 101 121.0000000000002L101 12.000000000000192C101 10.896169951012192 101.896169951012 10.000000000000192 103 10.000000000000192Z"/>
          </g>
        </g>
      </g>
    </g>
    <g opacity="1">
      <g opacity="1">
        <g transform="translate(229.12666666666672, 380.00000000000006)" opacity="1">
          <g transform="translate(60.660000000000146, 34.847775175644)" opacity="1">
            <g opacity="1">
              <path fill="rgb(178,139,103)" fill-opacity="1" opacity="1" fill-rule="evenodd" d="M40.73334097862244 13.66437816619873C46.52815222740173 24.465499877929688 45.83957648277283 51.863441467285156 38.3502995967865 53.79390335083008C35.36358618736267 54.56377029418945 29.00100302696228 52.67790985107422 22.52537703514099 48.774757385253906L26.58999991416931 77.53044509887695L2.5899999141693115 77.53044509887695L10.85227370262146 39.020572662353516C6.2443647384643555 33.611820220947266 3.1256346702575684 26.983322143554688 3.6467761993408203 19.555898666381836C5.148330211639404 -1.8445754051208496 34.93852972984314 2.8632562160491943 40.73334097862244 13.66437816619873Z"/>
            </g>
          </g>
          <g opacity="1">
            <path fill="rgb(25,24,71)" fill-opacity="1" opacity="1" fill-rule="evenodd" d="M92.85865943989289 31.89130826377834C89.17475336124848 30.767186483918813 83.82701611635557 30.385960789818025 81.57738202866621 30.643856754973932C82.85707640400665 27.575655952368987 83.36487798228667 24.15731108463319 82.9508971528472 20.8289488920203C82.5485256736309 17.59482837325215 81.10440850105567 14.841068540109939 79.76881725427037 11.955460980579176C79.15317771169515 10.625384741451173 78.4554987608762 9.302557861849682 77.41530098088039 8.28520086929688C76.3556682886591 7.248723690992861 75.01431536435565 6.564565385677645 73.60777808842879 6.238162972996155C72.16839065112966 5.904058115817734 70.66330289108612 5.93187753300073 69.22167957892921 6.235081995197374C68.58393927333655 6.3691951464379715 68.01172730011466 6.660981867380372 67.38628430623984 6.823186286786223C66.74579215466837 6.989377853931649 66.43509154462163 6.588216421132909 65.97020156457391 6.185061414464425C64.84985627044483 5.213647237910899 63.20743419702055 4.734102105231696 61.79006152755205 4.5624735184413865C60.199838532538585 4.370003023012293 58.549762887485734 4.6100474403341325 57.03315177240586 5.133179347166549C55.55695839513996 5.642446853904476 54.13881176898992 6.4694175418921125 53.07152550514004 7.674170478205442C52.59631610267172 8.210441849179631 52.16496424549092 8.820837921312531 51.88461993639813 9.494756506296516C51.769644371595334 9.771319572233217 51.750639435304095 9.935155097532537 51.474852871113725 10.03646489691563C51.2197911469514 10.130253485789954 50.92147384380941 10.132971995612415 50.65824257689743 10.222229734782648C48.11295703685807 11.084903518438367 45.9367628387286 13.052923395900052 44.75183515928396 15.579778275862196C44.06051985229106 17.053935535579768 43.73305018081089 19.649405448340314 43.82274316068322 22.5585007776169C43.91243614055554 25.467596106893485 46.53735322360714 33.05825594528099 48.99242981265315 35.826967582446606C51.18384515885299 38.298274245036865 54.40496687225439 39.9291082875213 57.51360688127132 40.642988966895246C55.45023836827366 43.00310857774744 54.07672324409268 45.95232926712343 53.061034092345785 48.951751771220515C51.957801840397494 52.209885793420256 51.27500005690156 55.595246075310385 51.022862169091745 59.04458195502205C50.78336557374713 62.321836162973 50.761178815542856 65.78757371861343 51.52894384363499 68.99487160713343C52.247175644108324 71.99420349423647 53.7831356762268 74.45472673453096 56.347254162183745 76.01569507457862C57.52177642402094 76.73075377487561 58.78547569460945 77.26793131579063 60.056484556079184 77.75889418972412C61.309090447565566 78.24269832112515 62.565480127272785 78.71309113740212 63.87759468805126 78.98457965167024C66.36087769838022 79.49819677412411 69.22219555005026 79.41002643888282 71.1350724860809 77.43203869207221C71.82449589896339 76.718973565645 72.5827154613165 75.82295272816731 73.08570130913357 74.95185156406197C73.26654918705447 74.6385886155223 73.37559108396542 74.43370359190406 73.15587338159362 74.12750876890274C72.89264211468164 73.76078179385497 72.46687994464531 73.47977849520828 72.12874686999723 73.19288509194634C70.20047679552249 71.55715773178149 69.00686360220722 69.37346940840587 68.70596644346006 66.77837993190035C68.40068353018415 64.1453219348747 69.10747797080796 60.746731571848656 71.66566278887308 59.597617469901365C74.8234920447615 58.179099044549815 78.30113740050149 59.807305194205895 81.10784830852921 61.32504922807668C82.30068754516299 57.112083939240335 84.749916461504 53.31876594999537 88.58985953939361 51.38626793421365C92.8381077643914 49.248341192849225 97.71291692069289 48.99814767219026 102.07863457091176 47.163787860998795C103.21626489759532 46.685783217218955 104.3749640450543 46.143168656659014 105.21255716485916 45.16921720427122C105.56255757529092 44.762165666857214 105.97318459244372 44.2341404423444 106.11292677105591 43.695784880506324C106.2965264949556 42.98860985869442 105.84075200471275 42.395702866419256 105.48868770979686 41.84438907442754C103.62190419391149 38.92117546235296 96.54256551853732 33.01543004363786 92.85865943989289 31.89130826377834Z"/>
          </g>
        </g>
        <g transform="translate(162, 581.3348946135832)" opacity="1">
          <g transform="translate(10, 42)" opacity="1">
            <g opacity="1">
              <ellipse fill="rgb(197,207,214)" fill-opacity="1" opacity="1" rx="77" ry="73.5" cx="116" cy="58.5"/>
            </g>
          </g>
          <g opacity="1">
            <path fill="rgb(178,139,103)" fill-opacity="1" opacity="1" fill-rule="evenodd" d="M245.71102905273438 96.58005905151367C249.4303970336914 109.60827255249023 258.6964797973633 134.30154037475586 271.5092544555664 162.65984725952148L283.68460845947266 159.10741806030273C273.03287506103516 93.85261535644531 264.16809844970703 50.6507453918457 259.09024810791016 37.501827239990234C255.73526763916016 28.814300537109375 230.35337829589844 29.83222770690918 233.27333068847656 47.312774658203125C234.49781799316406 54.64329147338867 239.34255981445312 74.27256774902344 245.71102905273438 96.58005905151367ZM195.66722106933594 50.361228942871094C175.81195068359375 54.474876403808594 134.64405822753906 69.0168228149414 122.88834381103516 73.66354370117188C115.500244140625 76.58384704589844 120.26301574707031 86.48800659179688 126.56578826904297 85.62152099609375C131.06280517578125 85.00328826904297 183.61155700683594 79.49429321289062 220.67855834960938 74.15955352783203C235.56256103515625 72.01742553710938 227.5559844970703 44.13802719116211 212.10208129882812 47.0882682800293C206.9028778076172 48.08082580566406 201.37283325195312 49.17913055419922 195.66722106933594 50.361228942871094Z"/>
          </g>
          <g opacity="1">
            <path fill="rgb(31,40,207)" fill-opacity="1" opacity="1" fill-rule="evenodd" d="M158 0L165.5621795654297 0C165.5621795654297 0 257.8387145996094 23.51358413696289 259.86865234375 30.137842178344727C259.8829650878906 30.184572219848633 259.8957214355469 30.231382369995117 259.9069519042969 30.278270721435547C259.9385070800781 30.319652557373047 259.96954345703125 30.361303329467773 260 30.403209686279297C272.1914978027344 47.17002868652344 279.4929504394531 129.02696228027344 281.889404296875 135.1561279296875L258.5277404785156 138.64137268066406C254.99441528320312 125.5391616821289 248.3885040283203 114.00849151611328 241.739013671875 102.40172576904297C231.57061767578125 84.65269470214844 221.30029296875 66.7257308959961 221.75949096679688 42.72901153564453C221.55441284179688 41.56477737426758 221.50259399414062 40.460697174072266 221.58712768554688 39.416259765625L158 7.046717643737793L158 0Z"/>
          </g>
          <g opacity="1">
            <path fill="rgb(43,68,255)" fill-opacity="1" opacity="1" fill-rule="evenodd" d="M163.28317260742188 58.64047622680664C157.46510314941406 57.47582244873047 152.10728454589844 56.4363899230957 147.522705078125 55.632259368896484C117.90928649902344 50.43808364868164 109.27376556396484 34.58625030517578 114.37954711914062 0L168.94175720214844 0C177.85458374023438 2.5603179931640625 224.17404174804688 21.984838485717773 248.2066192626953 32.31633758544922C264.1126403808594 39.15425491333008 259.0985412597656 63.804500579833984 250.09095764160156 70.21949005126953C250.0420379638672 70.613037109375 249.8799285888672 70.88035583496094 249.5912628173828 71C215.44041442871094 85.15433502197266 186.3179168701172 84.09823608398438 167.6169891357422 83.42007446289062C159.78439331054688 83.13603210449219 153.7799835205078 82.91828918457031 150 83.91216278076172L144.07711791992188 65.2284164428711L163.28317260742188 58.64047622680664Z"/>
          </g>
          <g transform="translate(143.959294398682, 93.33182045277488) rotate(64.0000228841067) translate(-143.959294398682, -93.33182045277488) translate(113.459294398682, 73.33182045277488)" opacity="1">
            <g opacity="1">
              <path fill="rgb(228,228,228)" fill-opacity="1" opacity="1" fill-rule="evenodd" d="M5.418277594775979 24.352252369694412C4.376480105828986 23.817796578774708 3.100425185042009 24.288623887502315 2.6554357316608503 25.37166099988739C2.6554357316608503 25.37166099988739 1.0000000000000004 29.40074151164802 1 32.10567082481627C1 34.81060013798453 1.9012426137621217 40 1.9012426137621217 40C5.0391504485432685 40 58.30305480921819 39.999999999999986 58.30305480921819 39.999999999999986C58.30305480921819 39.999999999999986 60.50157955400674 32.73176087777363 55.76482284857754 32.15222315544669C51.02806614314825 31.572685433119744 47.89501434138343 31.105670824816276 47.89501434138343 31.105670824816276L21.679992646828698 19.41888346032934C21.165423780954697 19.189486094577635 20.563016902233443 19.43024186516509 20.34829451643334 19.951105154500198L18.663213093007254 24.038695042870316C18.663213093007254 24.038695042870316 14.27821527920321 26.08463071358387 11.53668113938517 26.08463071358387C8.795146999567113 26.08463071358387 5.418277594775979 24.352252369694412 5.418277594775979 24.352252369694412Z"/>
            </g>
          </g>
          <g transform="translate(263, 132)" opacity="1">
            <g opacity="1">
              <path fill="rgb(228,228,228)" fill-opacity="1" opacity="1" fill-rule="evenodd" d="M5.418277594775979 24.352252369694412C4.376480105828986 23.817796578774708 3.100425185042009 24.288623887502315 2.6554357316608503 25.37166099988739C2.6554357316608503 25.37166099988739 1.0000000000000004 29.40074151164802 1 32.10567082481627C1 34.81060013798453 1.9012426137621217 40 1.9012426137621217 40C5.0391504485432685 40 58.30305480921819 39.999999999999986 58.30305480921819 39.999999999999986C58.30305480921819 39.999999999999986 60.50157955400674 32.73176087777363 55.76482284857754 32.15222315544669C51.02806614314825 31.572685433119744 47.89501434138343 31.105670824816276 47.89501434138343 31.105670824816276L21.679992646828698 19.41888346032934C21.165423780954697 19.189486094577635 20.563016902233443 19.43024186516509 20.34829451643334 19.951105154500198L18.663213093007254 24.038695042870316C18.663213093007254 24.038695042870316 14.27821527920321 26.08463071358387 11.53668113938517 26.08463071358387C8.795146999567113 26.08463071358387 5.418277594775979 24.352252369694412 5.418277594775979 24.352252369694412Z"/>
            </g>
          </g>
        </g>
        <g transform="translate(181.4666666666667, 473.1779859484778)" opacity="1">
          <g opacity="1">
            <path fill="rgb(178,139,103)" fill-opacity="1" opacity="1" fill-rule="evenodd" d="M190.78119659423828 92.21148681640625L222.67948150634766 115.63508605957031C231.33094024658203 117.96956634521484 238.55896759033203 120.87405395507812 244.36353302001953 124.34854125976562C245.73468780517578 125.59794616699219 247.3918228149414 128.12820434570312 241.70539093017578 127.69090270996094C236.01892852783203 127.25361633300781 230.01795196533203 127.04939270019531 229.23334503173828 128.98895263671875C228.8897476196289 129.8382568359375 229.35645294189453 130.76040649414062 229.85651397705078 131.74850463867188C230.49845123291016 133.01690673828125 231.19535064697266 134.39395141601562 230.3038101196289 135.864990234375Q230.2062759399414 136.02590942382812 230.06409454345703 136.11741638183594Q227.8937759399414 137.5141143798828 215.31742095947266 122.74105072021484L183.72977447509766 109.64244842529297L190.78119659423828 92.21148681640625ZM36.00457763671875 173.68966674804688C43.36233139038086 168.64454650878906 53.965301513671875 159.81466674804688 55.39793014526367 156.9082489013672C58.32839584350586 150.96310424804688 68.30792999267578 93.01988983154297 68.30792999267578 93.01988983154297L89.205322265625 93.10206604003906C89.205322265625 93.10206604003906 69.85055541992188 155.58258056640625 68.30792999267578 159.40560913085938C66.30401611328125 164.37181091308594 69.70793151855469 171.5872802734375 72.01607513427734 176.47998046875C72.3731689453125 177.2369384765625 72.70403289794922 177.9382781982422 72.98458862304688 178.56710815429688C69.78189849853516 180.00021362304688 68.24343872070312 178.2679901123047 66.62149810791016 176.4417724609375C64.78955841064453 174.3791046142578 62.85111999511719 172.196533203125 58.28792190551758 174.31948852539062C56.524932861328125 175.1396942138672 54.856658935546875 176.10940551757812 53.22677230834961 177.0568084716797C47.5968017578125 180.32933044433594 42.424808502197266 183.33566284179688 35.3890380859375 178.994384765625C34.27360534667969 178.30612182617188 33.05127716064453 175.7147216796875 36.00457763671875 173.68966674804688Z"/>
          </g>
          <g transform="translate(173.86417831167205, 64.2948397476249) rotate(5.000001787820835) translate(-173.86417831167205, -64.2948397476249)" opacity="1">
            <path fill="rgb(232,118,19)" fill-opacity="1" opacity="1" fill-rule="evenodd" d="M122.7317338522137 9.580310767489689L131.21668537626215 7.349140090270261C165.59350000642758 32.1628362443154 183.36170921748584 84.0563407231869 224.99662277113038 108.72735987794945L216.58973016712793 121.24053940497956C147.88923836287373 118.77164117816557 125.38331413912738 55.54690188011193 122.7317338522137 9.580310767489689Z"/>
          </g>
          <g opacity="1">
            <path fill="rgb(221,227,233)" fill-opacity="1" opacity="1" fill-rule="evenodd" d="M89.99999999999994 113.99999999999991C89.99999999999994 113.99999999999991 142.00763380444732 113.9999999999998 166.51145070667104 113.99999999999997C170.0076338044473 114 169.34884477427943 108.95163710899371 168.8434503368546 106.40420552146833C163.01058773109054 77.00376628567058 140.2413042581468 45.311515477904706 140.24130425814684 3.4607302968085105L118.17180010451452 0C99.91748496667677 29.358406822398315 93.60482630085626 65.50454991929624 89.99999999999994 113.99999999999991Z"/>
          </g>
          <g opacity="1">
            <path fill="rgb(255,155,33)" fill-opacity="1" opacity="1" fill-rule="evenodd" d="M92.93153381347656 28.512876510620117C88.91584777832031 28.22588348388672 85.29122161865234 26.545473098754883 83 22.411190032958984C74.93355560302734 7.856076240539551 77.84672546386719 -0.1575927734375 86.46719360351562 -2.7917308807373047C91.20748138427734 -4.240209579467773 95.66570281982422 -3.2515366077423096 101.00242614746094 -2.0680434703826904C105.36940002441406 -1.0996057987213135 110.32462310791016 -0.0007181167602539062 116.50396728515625 -2.384185791015625e-7L116.51002502441406 0C117.10884857177734 0 117.6538314819336 0.04012131690979004 118.14854431152344 0.11686563491821289L125.47158813476562 0.5347399711608887C125.47158813476562 0.5347399711608887 155.20518493652344 101.30541801452637 141.87228393554688 135.0000057220459L81.39686584472656 135.0000057220459C77.958251953125 143.25864219665527 74.5863037109375 150.46487998962402 71.40899658203125 156.0000057220459L55 156.0000057220459C53.234596252441406 98.91862297058105 74.8454360961914 54.99643516540527 92.93153381347656 28.512876510620117Z"/>
          </g>
          <g opacity="1">
            <path fill="rgb(0,0,0)" fill-opacity="0.1" opacity="1" fill-rule="evenodd" d="M81.39686584472656 135C85.90858459472656 124.16404724121094 90.53508758544922 111.5163345336914 94.9873275756836 98.45442199707031C96.6446762084961 112.8388900756836 99.40472412109375 127.28636932373047 104 135L81.39686584472656 135Z"/>
          </g>
        </g>
      </g>
      <g transform="translate(633, 360.00000000000006) scale(-1, 1) translate(-633, -360.00000000000006) translate(565, 308.00000000000006)" opacity="1">
        <g transform="translate(54, 31)" opacity="1">
          <g opacity="1">
            <path fill="rgb(178,139,103)" fill-opacity="1" opacity="1" fill-rule="evenodd" d="M38.143341064453125 9.133933067321777C43.93815231323242 19.935054779052734 43.249576568603516 47.3329963684082 35.76029968261719 49.263458251953125C32.77358627319336 50.0333251953125 26.41100311279297 48.147464752197266 19.93537712097168 44.24431228637695L24 73L0 73L8.262273788452148 34.49012756347656C3.6543643474578857 29.081377029418945 0.5356347560882568 22.452877044677734 1.0567762851715088 15.025453567504883C2.5583300590515137 -6.375020503997803 32.34852981567383 -1.6671888828277588 38.143341064453125 9.133933067321777Z"/>
          </g>
        </g>
        <g opacity="1">
          <path fill="rgb(25,24,71)" fill-opacity="1" opacity="1" fill-rule="evenodd" d="M78.46395003336747 27.685256755911034C75.30081950753706 27.166537817110928 66.78395109860651 26.809904157012816 65.21328843346899 26.81013439178369C64.20956085278135 26.81013439178369 63.121825887110504 27.039448223583513 62.527347397748144 26.117818435737526C62.040517715919094 25.363108856781977 62.218861262727756 24.08668728700481 62.07356980181416 23.2108742185646C61.904866446724895 22.193466766031175 61.66523882398573 21.1891826954381 61.42285686075553 20.187431207324714C60.73312409607067 17.33689450901818 59.69014716338273 14.624959142783425 58.230805759766966 12.07879281158467C55.4925322547122 7.301881785297345 51.48106485757587 3.5601062889014568 46.416750807657664 1.3827760606577932C40.82429196854139 -1.0213354169059468 34.49596516151196 -1.571826754088006 28.480485528614352 -1.0841895093571239C22.043132743806083 -0.5624775185354789 16.215866377810556 1.5625894167176657 10.137955027110934 3.562408636610293C4.34603603075314 5.468061835211625 -1.7203989012329117 6.218166718749465 -7.778111754996608 5.2875577748390725C-13.881500755240125 4.350041787802175 -18.493184851095748 1.0420285997504646 -23.641276757622997 -2.0976829707854536C-28.91147775926246 -5.311990607087684 -34.934302300136956 -7.414264300023338 -41.16462049135252 -6.931001515939295C-46.98041043863449 -6.479741365007959 -52.34058656298825 -4.078392704694757 -57.149665060717 -0.870531641977319C-61.64910978155398 2.130808831257749 -65.36173123538956 5.741810977791866 -67.45778434923353 10.824013310270526C-69.71267109807312 16.290937944895187 -69.7106053427047 22.291777013198338 -66.00257445635454 27.123253680185066C-60.62793804442173 34.12653494091414 -50.65011008648136 35.937561648682426 -42.34898690259159 35.757518057851684C-37.54748284121381 35.65368217618327 -32.83182239181343 34.777178403430426 -28.29863699995868 33.182802615063395C-22.2530891500311 31.056354271184873 -17.02879382324594 27.452259167777285 -11.372985152831 24.528047342788117C-8.718719032759608 23.155848108323475 -5.975166375096769 22.02884890484957 -3.0994053738537843 21.217041102714973C-0.3087993994654141 20.42894748198132 2.4398028824314224 20.06747889169446 4.966451226408054 21.75325788410225C7.639309144795391 23.5366564193645 10.034437730314622 25.28851279101579 13.092214732354648 26.404921195029047C16.0255873555398 27.475973349178304 19.13271295804799 28.07504422301676 22.25797130212375 28.050869572074C28.33863699331458 28.003901678813754 34.33277048740531 26.109299749214877 40.23853555740153 24.840245692105924C45.054499906358444 23.80557063175625 50.20741190874526 22.77434909296979 55.117253362778996 23.768963303185785C57.16602363152302 24.18407659508844 60.158614575270036 25.04101041231621 60.89861405392017 27.170221573445232C48.44417493759447 29.427443267185367 43.55270720027616 44.830149439280355 47.06380274150189 56.137209272131635C48.95878899948434 62.24004234393602 60.34981171103803 69.37418967816237 64.77879122097366 66.16583817329453C67.5846771713523 64.13325518410034 65.88121600259802 61.46484187037171 64.77879122097372 59.70331563834336C62.667589234427794 56.32991577536083 61.94526344059659 51.996667152565664 65.8518363706913 49.64804225478479C69.22154243336576 47.62243674055315 72.7645562054492 52.43271227308571 72.83157849073635 52.427416873355384C73.75772548092036 52.35443245098535 81.76044026005223 47.82854567719417 87.2741650743549 41.22412901107471C92.71347508212625 41.54656559152193 93.53869713723057 37.96002453288054 92.23989643408714 35.026907995301606C90.94109573094374 32.093791457722716 82.83439980786423 28.40243806721263 78.46395003336747 27.685256755911034Z"/>
        </g>
      </g>
      <g transform="translate(648.5, 635.5) scale(-1, 1) translate(-648.5, -635.5) translate(480, 501.00000000000006)" opacity="1">
        <g opacity="1">
          <path fill="rgb(153,118,89)" fill-opacity="1" opacity="1" fill-rule="evenodd" d="M143.78666666666663 1.1723955140041653e-13L186.05864098544498 138.466535410803L206.5362397903527 256.2234046673456L222.5920910911367 256.2234046673456L200.9541942070612 1.1723955140041653e-13L143.78666666666663 1.1723955140041653e-13Z"/>
        </g>
        <g opacity="1">
          <path fill="rgb(178,139,103)" fill-opacity="1" opacity="1" fill-rule="evenodd" d="M128.66404701728476 -9.769962616701378e-15C131.5352619275008 76.02557025839431 128.1562299282448 115.24093616124324 127.51361768618473 122.14818975875212C126.87100544412431 129.055443356261 118.0715404814492 173.84244558549912 97.2398754631064 258.54216851048903L114.34858473903981 252.65481630225608C147.27108891448773 174.97263542676419 158.4899045379602 134.59983416402432 162.26586654932677 124.39923578385678C166.04182856069446 114.19863740368979 176.07059616917758 72.73222547573745 192.3521693747777 -9.769962616701378e-15L128.66404701728476 -9.769962616701378e-15Z"/>
        </g>
        <g transform="translate(94.36000000000001, 223.97907949790795)" opacity="1">
          <g opacity="1">
            <path fill="rgb(228,228,228)" fill-opacity="1" opacity="1" fill-rule="evenodd" d="M5.849847672867018 27.287361684143775C4.807429805635513 26.751545212355794 3.5297720731944136 27.222886073333534 3.085078397448827 28.30731303542673C3.085078397448827 28.30731303542673 1.123333333333336 33.09121115746157 1.1233333333333355 36.135671346759736C1.1233333333333355 39.1801315360579 2.1357292027927857 45.020920502092046 2.1357292027927857 45.020920502092046C5.660645670530275 45.020920502092046 65.4937649023551 45.020920502092025 65.4937649023551 45.020920502092025C65.4937649023551 45.020920502092025 67.96344103233425 36.840350109293325 62.64248433323544 36.18806706617221C57.321527634136544 35.53578402305109 53.80206611015406 35.010148334207436 53.80206611015406 35.010148334207436L24.238995477175155 21.805093930896767C23.724087018351074 21.57509772056022 23.12095046474692 21.81613147687734 22.906374436905196 22.33765434887188L20.96500937447815 27.056104462477467C20.96500937447815 27.056104462477467 16.039195163638276 29.358852142067192 12.959538479909344 29.358852142067192C9.879881796180392 29.358852142067192 5.849847672867018 27.287361684143775 5.849847672867018 27.287361684143775Z"/>
          </g>
        </g>
        <g transform="translate(199.95333333333335, 223.97907949790795)" opacity="1">
          <g opacity="1">
            <path fill="rgb(228,228,228)" fill-opacity="1" opacity="1" fill-rule="evenodd" d="M5.849847672867018 27.287361684143775C4.807429805635513 26.751545212355794 3.5297720731944136 27.222886073333534 3.085078397448827 28.30731303542673C3.085078397448827 28.30731303542673 1.123333333333336 33.09121115746157 1.1233333333333355 36.135671346759736C1.1233333333333355 39.1801315360579 2.1357292027927857 45.020920502092046 2.1357292027927857 45.020920502092046C5.660645670530275 45.020920502092046 65.4937649023551 45.020920502092025 65.4937649023551 45.020920502092025C65.4937649023551 45.020920502092025 67.96344103233425 36.840350109293325 62.64248433323544 36.18806706617221C57.321527634136544 35.53578402305109 53.80206611015406 35.010148334207436 53.80206611015406 35.010148334207436L24.238995477175155 21.805093930896767C23.724087018351074 21.57509772056022 23.12095046474692 21.81613147687734 22.906374436905196 22.33765434887188L20.96500937447815 27.056104462477467C20.96500937447815 27.056104462477467 16.039195163638276 29.358852142067192 12.959538479909344 29.358852142067192C9.879881796180392 29.358852142067192 5.849847672867018 27.287361684143775 5.849847672867018 27.287361684143775Z"/>
          </g>
        </g>
        <g opacity="1">
          <path fill="rgb(105,161,172)" fill-opacity="1" opacity="1" fill-rule="evenodd" d="M138.16999999999987 1.4210854715202004e-14L156.14333333333332 70.54724230722678L211.0409904147681 70.5472423072268L202.85552616099142 1.4210854715202004e-14L138.16999999999987 1.4210854715202004e-14Z"/>
        </g>
        <g opacity="1">
          <path fill="rgb(137,197,204)" fill-opacity="1" opacity="1" fill-rule="evenodd" d="M128.06000000000012 0C119.18921499399482 26.642051650767485 124.69000000000008 70.54724230722678 124.69000000000008 70.54724230722678L180.71099041476822 70.54724230722677L196.1155261609926 1.958079318332328e-15L128.06000000000012 0Z"/>
        </g>
      </g>
      <g transform="translate(643, 485.50000000000006) scale(-1, 1) translate(-643, -485.50000000000006) translate(643, 485.50000000000006) rotate(8.000002860513337) translate(-643, -485.50000000000006) translate(515, 392.00000000000006)" opacity="1">
        <g opacity="1">
          <path fill="rgb(178,139,103)" fill-opacity="1" opacity="1" fill-rule="evenodd" d="M24.00457763671875 166.68966674804688C31.362333297729492 161.64456176757812 41.965301513671875 152.81466674804688 43.397926330566406 149.90826416015625C46.32839584350586 143.96311950683594 60.969791412353516 67.4496841430664 60.969791412353516 67.4496841430664L82.8671875 67.53186798095703C82.8671875 67.53186798095703 57.850555419921875 148.58258056640625 56.30792999267578 152.40560913085938C54.30400848388672 157.371826171875 57.707942962646484 164.58731079101562 60.01609420776367 169.4800262451172C60.3731803894043 170.23695373535156 60.704036712646484 170.93829345703125 60.984588623046875 171.56710815429688C57.78190231323242 173.00021362304688 56.24344253540039 171.26800537109375 54.62150192260742 169.44178771972656C52.7895622253418 167.37911987304688 50.85111999511719 165.196533203125 46.28791809082031 167.3195037841797C44.52492141723633 168.13970947265625 42.85664367675781 169.1094207763672 41.22674560546875 170.0568389892578C35.59679412841797 173.329345703125 30.424800872802734 176.33566284179688 23.389034271240234 171.994384765625C22.273605346679688 171.30612182617188 21.0512752532959 168.7147216796875 24.00457763671875 166.68966674804688ZM199.49311065673828 92.46033477783203L227.8210220336914 120.0953598022461C236.06339263916016 123.61117553710938 242.81684112548828 127.49333190917969 248.0813980102539 131.74185180664062C249.26529693603516 133.169921875 250.5541763305664 135.90618896484375 244.98392486572266 134.68174743652344C239.4136734008789 133.45730590820312 233.49951934814453 132.41990661621094 232.4526138305664 134.23138427734375C231.99417877197266 135.02459716796875 232.3279800415039 136.0027313232422 232.6856460571289 137.0508270263672C233.14481353759766 138.39622497558594 233.64325714111328 139.8568572998047 232.55567169189453 141.1894989013672C231.26578521728516 142.77001953125 226.92780303955078 137.74270629882812 219.54166412353516 126.10757446289062L190.08438873291016 108.74029541015625L199.49311065673828 92.46033477783203Z"/>
        </g>
        <g transform="translate(175.41326700039343, 63.943241037315616) rotate(5.000001787820835) translate(-175.41326700039343, -63.943241037315616)" opacity="1">
          <path fill="rgb(219,39,33)" fill-opacity="1" opacity="1" fill-rule="evenodd" d="M122.768272449111 9.713984803493371L131.25322397315946 7.482814126273964C149.01993754527993 54.264222709513746 221.60289670721033 80.86164258807023 227.4518964242078 98.41906309460967C229.59687921499912 104.8578332535092 225.1549087014368 108.59616778150675 227.77489303653022 110.3852975687036L217.2951899890939 119.5613937568956C215.20556638115653 117.51506187474456 211.5133809220411 121.91572349009422 202.8159277316806 119.82434522309443C194.11847454132007 117.73296695609461 127.73753287615436 66.51289139064144 122.768272449111 9.713984803493371Z"/>
        </g>
        <g opacity="1">
          <path fill="rgb(255,65,51)" fill-opacity="1" opacity="1" fill-rule="evenodd" d="M139.24986267089844 -2.8375494480133057L112.31562805175781 -4.720973968505859C110.11334228515625 -4.874972820281982 108.2003402709961 -3.2120261192321777 108.04634857177734 -1.0097436904907227L107.6367416381836 4.847899436950684C91.3631820678711 17.371180534362793 51.0295524597168 54.79329967498779 40.519187927246094 124.45689678192139C39.41512680053711 131.7747220993042 41.41175079345703 135.6943235397339 43.007076263427734 138.82612895965576C44.09838104248047 140.96847820281982 45.00190353393555 142.74219036102295 44.59663009643555 144.98286724090576L59.30625915527344 149.04326152801514C59.30625915527344 144.98286724090576 70.47118377685547 143.30749797821045 73.35112762451172 132.7674741744995C74.96859741210938 126.84785747528076 77.33711242675781 119.45424175262451 80.16683197021484 111.2293119430542C80.43403625488281 122.1223554611206 82.49986267089844 132.140398979187 87 140.43774700164795C98.22733306884766 161.138689994812 163.1087646484375 138.43657207489014 169.88727569580078 117.31824779510498C173.5043716430664 106.04915142059326 168.37189483642578 96.58824443817139 161.58380126953125 84.0755262374878C152.96726989746094 68.19235515594482 141.68310546875 47.391844749450684 142.24069213867188 11.73386287689209L142.96109008789062 1.4317331314086914C143.11508178710938 -0.7705497741699219 141.4521484375 -2.6835508346557617 139.24986267089844 -2.8375494480133057Z"/>
        </g>
      </g>
    </g>
  </g>
</svg>