<svg xmlns="http://www.w3.org/2000/svg" xmlns:xlink="http://www.w3.org/1999/xlink" height="792" width="1011">
  <g opacity="1">
    <g transform="translate(75.14189189189193, 392.50588235294117)" opacity="0.5045107886904762">
      <g opacity="1">
        <path fill="rgb(242,242,242)" fill-opacity="1" opacity="1" fill-rule="evenodd" d="M860.9347596081919 179.12650698750787C873.4898332302079 259.1884391060452 569.0079277673462 311.4100976443239 306.9332934663396 274.9658612015291C44.85865916533182 238.5216247587341 -75.36875692171036 96.20277103891088 49.68888925373529 20.369691160815588C174.74653542918105 -55.46338871727974 848.379685986176 99.06457486897055 860.9347596081919 179.12650698750787Z"/>
      </g>
    </g>
    <g transform="translate(766.3284301757812, 405.86814880371094) scale(-1, 1) translate(-766.3284301757812, -405.86814880371094) translate(766.3284301757812, 405.86814880371094) rotate(-3.0000010726925015) translate(-766.3284301757812, -405.86814880371094)" opacity="1">
      <path fill="rgb(242,242,242)" fill-opacity="1" opacity="1" fill-rule="evenodd" d="M856.7587890625 320.96905517578125C853.4348754882812 318.1404113769531 847.9739990234375 319.54595947265625 844.406005859375 320.92578125C843.03125 321.4580383300781 839.49755859375 323.2052307128906 836.8380126953125 325.2408142089844C837.253173828125 323.7550354003906 837.6327514648438 322.25421142578125 837.974853515625 320.73895263671875C839.3814697265625 314.50872802734375 840.4590454101562 308.1418151855469 841.1495361328125 301.7918395996094C841.3295288085938 300.13543701171875 841.3057861328125 298.2729797363281 841.2816772460938 296.3860778808594C841.2735595703125 295.7470397949219 841.2653198242188 295.1051940917969 841.2650146484375 294.4676208496094C841.412353515625 294.32470703125 841.5172729492188 294.1221923828125 841.5715942382812 293.8432312011719C841.5940551757812 294.1506042480469 841.5814208984375 294.2974548339844 841.6110229492188 294.3065185546875C841.62939453125 294.3121643066406 841.6640014648438 294.2648010253906 841.7332763671875 294.1698913574219C841.7603149414062 294.1329040527344 841.7926025390625 294.08868408203125 841.831298828125 294.0375671386719C844.6094970703125 290.318115234375 847.0006713867188 286.0883483886719 847.5482177734375 281.3294677734375C848.0120849609375 277.29339599609375 845.0877685546875 269.4576416015625 840.095703125 274.5143127441406C837.8624877929688 276.7724304199219 837.5384521484375 293.4363708496094 840.652587890625 294.6218566894531C839.517578125 300.08978271484375 838.165283203125 305.5369873046875 836.5476684570312 310.9002380371094C836.3497314453125 310.8544616699219 836.146240234375 310.8406677246094 835.943359375 310.85760498046875C836.033203125 309.5078430175781 836.112548828125 308.03399658203125 836.0838012695312 307.5242919921875C835.8378295898438 303.1334228515625 832.6569213867188 294.07830810546875 826.7633666992188 295.4951477050781C822.2344970703125 296.5840759277344 824.6824951171875 302.1717529296875 826.0753173828125 304.6342468261719C828.3172607421875 308.5988464355469 830.9937133789062 310.40496826171875 834.3887939453125 312.58349609375C834.4156494140625 313.41162109375 834.9219360351562 313.9187927246094 835.541259765625 314.1075134277344C832.7380981445312 322.7588806152344 829.210693359375 331.15509033203125 824.758056640625 339.0272216796875C824.3584594726562 336.4481201171875 823.8727416992188 333.17938232421875 823.5018920898438 332.5148620605469C821.6920166015625 329.266845703125 817.5215454101562 325.1969299316406 813.3929443359375 326.8463439941406C804.7211303710938 330.315673828125 813.32177734375 342.0439147949219 820.4658203125 343.6450500488281C820.74365234375 344.0751037597656 821.0433349609375 344.4249267578125 821.3704833984375 344.6336669921875C819.8421630859375 347.0002746582031 818.2201538085938 349.3110656738281 816.4963989257812 351.5547790527344C813.9111328125 354.9300842285156 811.1466064453125 358.28466796875 808.258544921875 361.6123046875C808.3171997070312 358.89404296875 807.5630493164062 352.7891845703125 807.2933349609375 352.1233825683594C805.6519775390625 348.079833984375 800.53759765625 343.7397155761719 796.0686645507812 346.31695556640625C791.0422973632812 349.2232971191406 795.1365966796875 355.4278564453125 797.7674560546875 358.2765197753906C798.8456420898438 359.4444580078125 804.2535400390625 363.8008728027344 806.235107421875 363.923095703125C799.2677001953125 371.76202392578125 791.629150390625 379.42535400390625 783.8850708007812 386.79156494140625C784.6748657226562 383.35357666015625 785.9697265625 373.839599609375 785.9365844726562 372.77447509765625C785.76806640625 367.2764587402344 782.6314697265625 358.33233642578125 775.4361572265625 360.0945739746094C768.4556884765625 361.801025390625 771.0191040039062 371.05609130859375 773.144287109375 375.51531982421875C774.431640625 378.21417236328125 776.2621459960938 380.98388671875 778.5421752929688 382.9385986328125C779.4486694335938 383.71533203125 781.0082397460938 384.23126220703125 781.7705078125 385.0562744140625C782.5340576171875 385.8831787109375 782.1382446289062 386.88873291015625 782.9598388671875 387.6730041503906C778.775634765625 391.6357116699219 774.568359375 395.5100402832031 770.4241333007812 399.27398681640625C768.46875 401.0506591796875 766.4815673828125 402.7890930175781 764.4768676757812 404.5036926269531C763.454833984375 404.01531982421875 761.935302734375 404.5074462890625 761.935302734375 405.99200439453125C761.935302734375 406.2076416015625 761.9752197265625 406.39569091796875 762.0332641601562 406.5693664550781C760.5155639648438 407.84075927734375 758.9891357421875 409.1020812988281 757.4520263671875 410.348388671875C757.5057373046875 409.9647216796875 757.5244750976562 409.4205627441406 757.496337890625 408.6663818359375C758.474365234375 410.22607421875 758.5449829101562 408.0326232910156 758.5988159179688 406.36053466796875C758.6177978515625 405.7697448730469 758.6347045898438 405.2440185546875 758.6888427734375 404.97198486328125C759.3524780273438 401.6311950683594 760.458740234375 398.4176330566406 760.6073608398438 394.9815368652344C760.8214721679688 390.0132751464844 758.1150512695312 381.5242614746094 751.3468017578125 384.1347351074219C745.1235961914062 386.5301513671875 746.9503784179688 394.0060729980469 749.0025024414062 398.7405090332031C750.3016967773438 401.73651123046875 752.1521606445312 404.4479064941406 754.0982055664062 407.052734375C754.9603881835938 408.2081298828125 756.0223388671875 410.3496398925781 756.7303466796875 410.93267822265625C748.1708984375 417.83807373046875 739.3492431640625 424.4169006347656 730.6437377929688 431.1430358886719C730.5570068359375 430.6509094238281 730.4895629882812 430.1637878417969 730.433349609375 429.70867919921875C730.5850830078125 429.89923095703125 730.7998657226562 429.99578857421875 731.08203125 429.993896484375C731.1765747070312 429.625 731.31103515625 429.1354675292969 731.4725952148438 428.5473937988281C733.4447021484375 421.3678894042969 739.4512939453125 399.5011901855469 726.101806640625 403.10064697265625C716.3206176757812 405.7468566894531 722.0986938476562 425.3641662597656 728.9175415039062 432.47772216796875C724.3681030273438 436.0116271972656 719.857421875 439.5956726074219 715.4415893554688 443.298828125C712.246337890625 445.978271484375 709.135986328125 448.7598571777344 706.1329956054688 451.6448974609375C707.810546875 447.79315185546875 709.4637451171875 442.7797546386719 708.7657470703125 438.68414306640625C707.7493286132812 432.72412109375 701.83203125 426.8367919921875 695.594482421875 429.87103271484375C687.817626953125 433.6716613769531 693.3309936523438 439.7077331542969 698.5011596679688 445.3680419921875C701.1410522460938 448.25823974609375 703.6914672851562 451.05047607421875 704.3374633789062 453.3971252441406C694.775390625 462.87664794921875 686.4775390625 473.52972412109375 680.66015625 485.8554382324219C674.333251953125 499.2594299316406 668.161865234375 517.3922119140625 670.2383422851562 532.8681640625C670.0597534179688 526.1021118164062 672.7769165039062 517.7608642578125 674.6854858398438 511.9017639160156C674.9454345703125 511.10394287109375 675.1903076171875 510.3522033691406 675.4108276367188 509.65673828125C678.2933349609375 500.5665283203125 682.1722412109375 491.77850341796875 687.1043701171875 483.6211242675781C695.0045166015625 470.5563049316406 705.1072387695312 459.6436767578125 716.6234130859375 449.85882568359375C720.5809936523438 451.47625732421875 724.9974365234375 455.0552978515625 727.235595703125 456.164306640625C731.3392333984375 458.197998046875 739.2643432617188 461.2197265625 742.2386474609375 455.6477355957031C745.1629638671875 450.16851806640625 738.6144409179688 446.6753845214844 734.5201416015625 445.1983642578125C730.563232421875 443.77276611328125 726.930908203125 443.7295227050781 723.128173828125 444.5288391113281C730.32470703125 438.78509521484375 737.7079467773438 433.2807922363281 745.054931640625 427.73388671875C746.5020141601562 429.05450439453125 748.0781860351562 430.9364318847656 749.751708984375 432.9346618652344C755.0631103515625 439.2764587402344 761.35546875 446.78955078125 767.6171875 441.24884033203125C777.06689453125 432.8870849609375 760.3494873046875 423.00885009765625 752.989990234375 423.3260803222656C752.0866088867188 423.36431884765625 751.2069702148438 423.50848388671875 750.3453979492188 423.7222900390625C758.1456298828125 417.7666320800781 765.8372802734375 411.67431640625 773.1536865234375 405.10552978515625C774.3898315429688 405.3987731933594 776.2798461914062 407.3411865234375 778.55029296875 409.67462158203125C783.6531372070312 414.9189758300781 790.6777954101562 422.138427734375 796.5206909179688 417.050048828125C800.7385864257812 413.37701416015625 799.6810302734375 407.2564697265625 795.98193359375 403.59466552734375C792.2684326171875 399.9172058105469 786.6202392578125 399.626953125 781.7586669921875 400.5453796386719C779.6572265625 400.939697265625 777.6924438476562 401.7998352050781 775.8463745117188 402.8768615722656C775.7702026367188 402.8768615722656 775.6971435546875 402.87750244140625 775.6240844726562 402.87750244140625C782.8275146484375 396.34130859375 790.080810546875 389.6528015136719 797.0932006835938 382.71038818359375C797.206787109375 382.7536315917969 797.3235473632812 382.79815673828125 797.4403076171875 382.8432922363281C797.8155517578125 383.3561096191406 798.477294921875 383.5711364746094 799.097900390625 383.4946594238281C799.430419921875 383.6285705566406 799.7704467773438 383.7663879394531 800.1170654296875 383.90692138671875C805.2738647460938 385.99725341796875 811.9017333984375 388.6839294433594 817.1887817382812 387.9519958496094C821.0802001953125 387.4134826660156 824.7399291992188 384.4607238769531 821.681396484375 380.4290466308594C819.1947021484375 377.1502990722656 811.9782104492188 377.22430419921875 808.4314575195312 377.78411865234375C805.9735107421875 378.17279052734375 803.1365966796875 379.9356689453125 800.440185546875 381.13055419921875C800.259765625 380.71240234375 799.92138671875 380.43218994140625 799.5267944335938 380.2854919433594C806.4580078125 373.3029479980469 813.1026000976562 366.0514831542969 819.1834716796875 358.4401550292969C820.884521484375 358.79608154296875 822.7471313476562 359.6501159667969 824.668212890625 360.5309753417969C829.291015625 362.65057373046875 834.2523193359375 364.9253845214844 838.1153564453125 360.78857421875C843.8184814453125 354.679931640625 833.9180297851562 350.42132568359375 829.0870361328125 350.77679443359375C827.4556884765625 350.89654541015625 825.833740234375 351.2726745605469 824.2592163085938 351.7992858886719C828.7236938476562 345.50445556640625 832.2373657226562 338.7099914550781 834.8326416015625 331.5168151855469C834.8863525390625 331.54754638671875 834.9288330078125 331.57952880859375 834.989990234375 331.6102294921875C834.933837890625 331.57574462890625 834.8894653320312 331.5393981933594 834.8370361328125 331.5049133300781C835.0961303710938 330.78521728515625 835.3464965820312 330.061767578125 835.5868530273438 329.3351745605469C835.97265625 329.1458435058594 836.3310546875 329.01043701171875 836.5020751953125 328.9559020996094C834.24267578125 330.3470153808594 843.4033203125 331.56573486328125 845.1189575195312 331.7939147949219C848.9116821289062 332.2979431152344 854.0079956054688 332.6791076660156 856.966064453125 329.7012939453125C859.4501953125 327.1999206542969 859.516357421875 323.3155822753906 856.7587890625 320.96905517578125ZM853.6632690429688 289.55340576171875C850.5667724609375 290.8944091796875 847.5987548828125 292.785888671875 845.4641723632812 295.49859619140625C844.7404174804688 296.41815185546875 842.4412231445312 302.63409423828125 841.8284301757812 302.63409423828125C847.92724609375 303.0906982421875 858.7434692382812 303.5721740722656 862.0288696289062 296.8345031738281C865.0960693359375 290.54254150390625 858.6998291015625 287.37646484375 853.6632690429688 289.55340576171875ZM670.8284301757812 538.8681640625C670.1679077148438 537.1519775390625 669.873779296875 535.0975341796875 669.8284301757812 532.8681640625C670.0407104492188 534.922607421875 670.3673095703125 536.929443359375 670.8284301757812 538.8681640625Z"/>
    </g>
    <g transform="translate(173.12296295166016, 126.71407508850098) rotate(-3.0000010726925015) translate(-173.12296295166016, -126.71407508850098)" opacity="0.2">
      <path fill="rgb(193,222,226)" fill-opacity="1" opacity="1" fill-rule="evenodd" d="M239.58006286621094 65.72423553466797C237.15310668945312 63.678924560546875 233.165771484375 64.69523620605469 230.56057739257812 65.69296264648438C229.55679321289062 66.07781219482422 226.97665405273438 67.34117126464844 225.03472900390625 68.81305694580078C225.33787536621094 67.73872375488281 225.6150360107422 66.65351104736328 225.86483764648438 65.55787658691406C226.89187622070312 61.05292510986328 227.67868041992188 56.44916534423828 228.18284606933594 51.857635498046875C228.3142852783203 50.66001892089844 228.29693603515625 49.313438415527344 228.27935791015625 47.949188232421875C228.2733917236328 47.48701095581055 228.2674102783203 47.022804260253906 228.26718139648438 46.561676025390625C228.374755859375 46.45832061767578 228.45135498046875 46.31190490722656 228.49099731445312 46.11018371582031C228.5074005126953 46.33232879638672 228.49818420410156 46.43850326538086 228.51974487304688 46.44517517089844C228.5331573486328 46.44932556152344 228.5584716796875 46.415008544921875 228.60923767089844 46.3461799621582C228.62893676757812 46.31947708129883 228.65248107910156 46.287574768066406 228.68063354492188 46.250709533691406C230.7091827392578 43.561248779296875 232.45509338378906 40.50279998779297 232.85487365722656 37.061763763427734C233.19357299804688 34.14338684082031 231.05836486816406 28.477527618408203 227.41336059570312 32.13388442993164C225.78277587890625 33.76668930053711 225.54620361328125 45.81598663330078 227.8199920654297 46.673187255859375C226.99124145507812 50.626914978027344 226.00387573242188 54.56568145751953 224.82275390625 58.443702697753906C224.67825317382812 58.410614013671875 224.52964782714844 58.40064239501953 224.38150024414062 58.412879943847656C224.4471435546875 57.436912536621094 224.50503540039062 56.371192932128906 224.48406982421875 56.002655029296875C224.30445861816406 52.82770919799805 221.9818878173828 46.280174255371094 217.67864990234375 47.30464172363281C214.37188720703125 48.09203338623047 216.15928649902344 52.13233947753906 217.17630004882812 53.91292190551758C218.81326293945312 56.779624938964844 220.7675018310547 58.085594177246094 223.24642944335938 59.66082763671875C223.26602172851562 60.2596435546875 223.63571166992188 60.626365661621094 224.08792114257812 60.762813568115234C222.04115295410156 67.01841735839844 219.465576171875 73.08953857421875 216.21444702148438 78.78168487548828C215.92269897460938 76.91678619384766 215.56805419921875 74.55325317382812 215.29727172851562 74.07275390625C213.9757537841797 71.72418212890625 210.9306640625 68.78132629394531 207.91610717773438 69.97396850585938C201.58432006835938 72.48255920410156 207.8641357421875 80.9629898071289 213.08047485351562 82.1207275390625C213.2833251953125 82.43170166015625 213.50213623046875 82.68463897705078 213.74099731445312 82.83558654785156C212.62506103515625 84.54681396484375 211.44076538085938 86.21769714355469 210.18215942382812 87.84007263183594C208.29446411132812 90.28067016601562 206.2759552001953 92.70630645751953 204.16717529296875 95.11244583129883C204.2100372314453 93.14691925048828 203.65936279296875 88.73263549804688 203.46243286132812 88.251220703125C202.26400756835938 85.32740783691406 198.5296630859375 82.18917846679688 195.26666259765625 84.05271911621094C191.5966033935547 86.15423583984375 194.58609008789062 90.64059448242188 196.50704956054688 92.70040893554688C197.2943115234375 93.544921875 201.24288940429688 96.6949348449707 202.68975830078125 96.78332901000977C197.60244750976562 102.45146560668945 192.02511596679688 107.9926643371582 186.37071228027344 113.31898880004883C186.94735717773438 110.83307266235352 187.89280700683594 103.95370864868164 187.86865234375 103.18355178833008C187.74557495117188 99.20805740356445 185.45535278320312 92.74075317382812 180.20166015625 94.01499938964844C175.1047821044922 95.24890518188477 176.97650146484375 101.94104385375977 178.52822875976562 105.1653938293457C179.46820068359375 107.11687088012695 180.80474853515625 109.11957168579102 182.4695281982422 110.53297805786133C183.13143920898438 111.09462356567383 184.2701416015625 111.46770095825195 184.82675170898438 112.06424331665039C185.38424682617188 112.66215896606445 185.09524536132812 113.38925552368164 185.6951446533203 113.95633316040039C182.6400146484375 116.82167434692383 179.56802368164062 119.62311172485352 176.54208374023438 122.34474563598633C175.11434936523438 123.62941360473633 173.6633758544922 124.88643264770508 172.19964599609375 126.12622451782227C171.45339965820312 125.77309036254883 170.3438720703125 126.12894058227539 170.3438720703125 127.20236587524414C170.3438720703125 127.35829544067383 170.373046875 127.49429702758789 170.41543579101562 127.6198616027832C169.3072509765625 128.53915786743164 168.19268798828125 129.4512062072754 167.0703887939453 130.35237503051758C167.10958862304688 130.07495498657227 167.12326049804688 129.68149185180664 167.10275268554688 129.13615798950195C167.81683349609375 130.26393508911133 167.86837768554688 128.67790603637695 167.9076690673828 127.46887588500977C167.9215545654297 127.04167556762695 167.93389892578125 126.66153335571289 167.97341918945312 126.4648323059082C168.4580078125 124.04916763305664 169.26577758789062 121.72552871704102 169.374267578125 119.24097061157227C169.53062438964844 115.64853286743164 167.55450439453125 109.51031875610352 162.61260986328125 111.39789199829102C158.06866455078125 113.12996292114258 159.40249633789062 118.5356330871582 160.90087890625 121.95898818969727C161.84951782226562 124.12532424926758 163.20065307617188 126.08588027954102 164.62155151367188 127.9693489074707C165.25108337402344 128.8047981262207 166.0264892578125 130.35329055786133 166.54342651367188 130.77486038208008C160.29368591308594 135.76800918579102 153.8524932861328 140.52499771118164 147.49609375 145.38850784301758C147.43272399902344 145.03265762329102 147.3834991455078 144.68043899536133 147.34246826171875 144.35133743286133C147.4532470703125 144.48915481567383 147.61004638671875 144.55896377563477 147.81610107421875 144.55759048461914C147.8851318359375 144.29083633422852 147.9833221435547 143.93686294555664 148.1012725830078 143.5116310119629C149.5412139892578 138.32040786743164 153.9269561767578 122.50900650024414 144.1797637939453 125.11172866821289C137.03793334960938 127.02511978149414 141.2568359375 141.20993423461914 146.23565673828125 146.35359573364258C142.9138641357422 148.90887832641602 139.62033081054688 151.50041580200195 136.39608764648438 154.1780891418457C134.0630340576172 156.1155128479004 131.79197692871094 158.12683486938477 129.59933471679688 160.21294021606445C130.82420349121094 157.42782974243164 132.03131103515625 153.80275344848633 131.52166748046875 150.84131240844727C130.779541015625 146.53174209594727 126.45896911621094 142.27475357055664 121.90454864501953 144.46875381469727C116.2261962890625 147.21689224243164 120.2518310546875 151.58143997192383 124.02684783935547 155.67427444458008C125.95441436767578 157.76411819458008 127.81664276123047 159.7831153869629 128.28829956054688 161.47992324829102C121.30647277832031 168.3343391418457 115.24774169921875 176.03735733032227 111.00010681152344 184.94978713989258C106.38050079345703 194.64189529418945 101.87439727783203 207.7532844543457 103.39056396484375 218.94357681274414C103.26016998291016 214.05096817016602 105.24430084228516 208.01921463012695 106.63772583007812 203.78320693969727C106.82748413085938 203.20634841918945 107.00628662109375 202.66279983520508 107.16729736328125 202.15996170043945C109.27197265625 195.58703994750977 112.10417938232422 189.23260879516602 115.70541381835938 183.33420181274414C121.47377014160156 173.88733291625977 128.85037231445312 165.99664688110352 137.25901794433594 158.92146682739258C140.14866638183594 160.09099197387695 143.3733673095703 162.67891311645508 145.00759887695312 163.48080825805664C148.00390625 164.9513282775879 153.79049682617188 167.1362648010254 155.96218872070312 163.1072883605957C158.09739685058594 159.14540481567383 153.31594848632812 156.61958694458008 150.32647705078125 155.55160903930664C147.43728637695312 154.5207862854004 144.78514099121094 154.48950576782227 142.008544921875 155.06747817993164C147.26315307617188 150.9142951965332 152.654052734375 146.93426895141602 158.01852416992188 142.92343521118164C159.0751190185547 143.8783302307129 160.22593688964844 145.23909378051758 161.44789123535156 146.68396377563477C165.3260040283203 151.26953506469727 169.92050170898438 156.70216751098633 174.49256896972656 152.69577407836914C181.39234924316406 146.64960098266602 169.18600463867188 139.5068702697754 163.81240844726562 139.7362403869629C163.15280151367188 139.7639045715332 162.510498046875 139.8681526184082 161.8814239501953 140.0227394104004C167.57684326171875 135.7163429260254 173.19293212890625 131.31111526489258 178.53506469726562 126.5613899230957C179.43765258789062 126.7734260559082 180.8176727294922 128.17795181274414 182.47549438476562 129.8652229309082C186.20140075683594 133.65730667114258 191.33047485351562 138.87749099731445 195.59671020507812 135.19821548461914C198.67645263671875 132.54230117797852 197.90423583984375 128.11667251586914 195.20330810546875 125.46892166137695C192.4918975830078 122.80983352661133 188.3677978515625 122.5999641418457 184.81808471679688 123.26405715942383C183.28369140625 123.5491828918457 181.84912109375 124.17111587524414 180.50115966796875 124.94989395141602C180.445556640625 124.94989395141602 180.3922119140625 124.95035171508789 180.3388671875 124.95035171508789C185.5985107421875 120.22418594360352 190.89459228515625 115.38788223266602 196.0147247314453 110.36798477172852C196.09768676757812 110.39925003051758 196.18292236328125 110.43144607543945 196.2681884765625 110.46408462524414C196.54214477539062 110.83488845825195 197.0253448486328 110.99036026000977 197.47845458984375 110.93506240844727C197.7213134765625 111.03190994262695 197.9696502685547 111.13161087036133 198.22283935546875 111.23324966430664C201.98806762695312 112.74469375610352 206.82733154296875 114.68727493286133 210.6876983642578 114.15805435180664C213.52902221679688 113.7686653137207 216.20123291015625 111.63360977172852 213.968017578125 108.71840286254883C212.15234375 106.34761428833008 206.88314819335938 106.4011116027832 204.29345703125 106.80591201782227C202.49876403808594 107.08696365356445 200.4273681640625 108.36165237426758 198.45855712890625 109.22565078735352C198.32681274414062 108.92329788208008 198.07974243164062 108.72066116333008 197.7916259765625 108.61459732055664C202.85250854492188 103.56567764282227 207.70413208007812 98.32229995727539 212.14413452148438 92.8187255859375C213.38616943359375 93.07609558105469 214.7461700439453 93.69363403320312 216.14886474609375 94.3305435180664C219.5242462158203 95.86319351196289 223.14675903320312 97.5080451965332 225.9674072265625 94.51680755615234C230.13162231445312 90.09980773925781 222.9027099609375 87.0205078125 219.37533569335938 87.27752685546875C218.18418884277344 87.36410522460938 216.9998779296875 87.63609313964844 215.8502197265625 88.01686096191406C219.11001586914062 83.4652328491211 221.67556762695312 78.55230712890625 223.57052612304688 73.35108947753906C223.6097412109375 73.37330627441406 223.6407470703125 73.39642333984375 223.68540954589844 73.41863250732422C223.64437866210938 73.39370727539062 223.6120147705078 73.3674087524414 223.57373046875 73.34248352050781C223.76290893554688 72.82208251953125 223.94570922851562 72.29896545410156 224.1212158203125 71.77359008789062C224.40292358398438 71.63668823242188 224.66458129882812 71.53877258300781 224.78948974609375 71.49934387207031C223.13975524902344 72.5052261352539 229.82847595214844 73.38644409179688 231.08114624023438 73.55145263671875C233.8504638671875 73.91590881347656 237.5715789794922 74.19151306152344 239.73141479492188 72.03831481933594C241.5452423095703 70.22962951660156 241.59356689453125 67.42095947265625 239.58006286621094 65.72423553466797ZM236.702392578125 42.65804672241211C234.49061584472656 43.61592102050781 232.3705596923828 44.966976165771484 230.8458709716797 46.90461730957031C230.32888793945312 47.56144332885742 228.6866455078125 52.00141143798828 228.24891662597656 52.00141143798828C232.60523986816406 52.327545166015625 240.33108520507812 52.67146301269531 242.67779541015625 47.85884094238281C244.86863708496094 43.364593505859375 240.2999267578125 41.10309982299805 236.702392578125 42.65804672241211ZM103.99700927734375 222.48457717895508C103.33650970458984 221.34045791625977 103.0423355102539 219.9708137512207 102.99700927734375 218.48457717895508C103.20931243896484 219.85422134399414 103.5358657836914 221.19211196899414 103.99700927734375 222.48457717895508Z"/>
    </g>
    <g transform="translate(753, 320)" opacity="0.7000000000000001">
      <g transform="translate(60, 231.5) scale(-1, 1) translate(-60, -231.5) translate(60, 231.5) rotate(6.000002145385003) translate(-60, -231.5)" opacity="1">
        <path fill="rgb(105,161,172)" fill-opacity="1" opacity="1" fill-rule="evenodd" d="M79.90475281622864 113.04037813579937C66.25304470228096 113.76302400352955 50.29433621382351 123.45325307868617 50.39694174217088 138.3643134113825C50.47179162959456 149.1984788248819 51.921509388024226 159.85696522868898 51.41847876264651 170.73567382990308C51.01571941104056 179.43006484594022 49.125177740645405 187.93439644691114 46.18841452349888 196.1242481304778C43.364539428406985 203.99965525083786 36.543130316277335 211.16785281232072 35.436189013344176 219.3804610994996C34.730555646770064 224.61339249662956 36.180135854081264 231.71794380757257 38.41742044086969 236.5288983916659C41.13812572711778 242.37821875791622 39.980674597492566 242.01497078378156 36.36557030234748 247.54292373345208C29.281705319582564 258.3760300277203 23.034145339915476 269.37815661446854 19.108206383013712 281.8399308560303C13.453014601576482 299.78935860454226 10.671446092683766 320.36796201286455 15.414810641328195 338.86672978562376C16.017872752436645 341.21585975713873 17.335372536783723 349.7345822983209 20.68392137486429 349.98775622423733C24.423859064799593 350.2712098105145 22.193268510310183 345.55442167851044 21.83109084734229 343.9931006104588C19.52168521363405 334.03074560367173 17.484961495013405 325.32450939956374 17.913579715161717 314.91494822811165C19.567896183509678 274.75141241139374 45.20350148029616 245.70947377656728 60.15096205733088 210.19832421721105C60.984680489498956 208.36042627213968 62.695578873558595 204.0128564211688 63.90057363478055 201.13661876319696C65.80297688226969 196.59567763709688 67.31049717610172 188.17709290073367 70.16213874829458 184.65855713342967C75.53259091963025 178.03008970142832 71.2830112588864 190.667575016338 70.35565011260557 193.0923276145161C69.18327837823885 196.15942107356744 67.88212436036468 199.42493234128403 66.6353082654345 202.13553701973686C60.94645576197478 214.69058296822004 54.566029629709675 228.41343745104322 48.68818870773693 241.35691340780272C80.39241046823443 245.15732037288012 98.28599553496615 205.64167282721957 104.0228583018877 180.2959932581952C108.74964528686002 159.41393118580027 111.98593509807033 111.4127850224488 79.90475281622864 113.04037813579937"/>
      </g>
      <g opacity="1">
        <path fill="rgb(137,197,204)" fill-opacity="1" opacity="1" fill-rule="evenodd" d="M210.80537014228207 78.12119963980213C187.98263473359407 79.93200604459706 173.33093983013168 94.99175303454464 166.5105262342713 116.05553130250145C162.8345671926553 127.40695555273633 162.4132321480775 139.068178388264 160.37047202177106 150.7336104437005C157.29750145712572 168.28437377571606 150.6856529132719 181.5846668437569 137.76387055810602 194.0885755050399C133.76160812867326 197.96105782119838 130.8122628166286 201.93708694711495 128.71567945109467 206.19092458701687C124.55362928020527 210.4380274750646 120.93065248970382 215.24411476700993 118.26892511228115 221.12018575978956C114.86881017170609 228.62438301331923 113.90671977051444 237.62790439838767 117.8324522816706 245.10937186440947C118.88789236339744 247.12053713686657 121.52102614498054 251.15802087345264 124.25003257143761 252.9923989097373C114.0328679874539 274.75238215062075 108.41506739308306 298.5841434306491 109.04833144211918 322.38559832733347C109.43098103350222 336.75334956426315 110.13236511968564 351.1269937090653 110.95064655356632 365.4770662223777C111.17098543915391 369.33018612695537 112.4257397036451 375.69284294120007 114.31039406472073 369.2308485371061C116.03526068433968 363.3202619410738 113.87223925788432 354.0414575739654 113.67208408700702 347.8665319676562C112.69821985223437 317.7857628109226 111.86564162043389 290.4350936870808 124.24835059521178 262.3309741995516C125.54683624157533 259.3853621073258 126.92353378244137 256.46332164658975 128.3574185149866 253.56485281734328C128.4415173262796 253.5160258664004 128.51972922078204 253.45709678767628 128.59878210339744 253.39985139691564C128.6534463307379 253.4419435960044 128.70306462940073 253.48740317102013 128.75772885674118 253.52865352612702C128.84939656105053 253.36533579366298 128.97470378987705 253.1708698338733 129.12103572152685 252.9536740865757C129.53227890874948 252.5293847197618 129.8913808329705 251.99313010337207 130.23282200682 251.39457903233102C131.33115248230627 249.87252511328438 132.57413291321646 248.0844484959973 132.58086081811987 247.1053839451946C132.58086081811987 247.09780734935865 132.57665587755523 247.0860215336138 132.57665587755523 247.07844493777787C140.24226252691005 234.5652759926954 149.0221784258968 222.7415772686854 157.99047566217982 211.14938563966322C157.92319661314548 211.2335700378406 167.71818516443844 197.89707767858357 166.20356557305195 205.27247280290186C165.4735878910289 208.8267380939499 158.2688427275596 215.59516370740954 155.3590238568226 219.359889993901C148.92210084045817 227.7353957685663 141.36329968144543 238.34768100280405 135.08195946597303 248.60975914062402C134.23676641247857 249.0955031181074 133.04256329211833 251.48044711847191 132.17886850013946 253.2567379200142C131.7020282401083 254.1566691365301 131.25714552836843 255.06417694888205 130.81983170964494 255.85466844776744C153.0765821183312 263.20817562855973 170.3900043992163 248.3959307692535 182.19579552852434 231.16759368225718C182.21009232644417 231.14738942669462 182.2227071481381 231.1263433271503 182.236162957945 231.10613907158773C185.82886417638093 226.34551135465816 189.5090281585616 221.6185573969995 194.10671017194863 217.85551479847157C201.77736274998105 211.57620053842248 209.99213463707898 210.4683338584084 219.0361208035257 207.37792460131757C243.69977919141695 198.95106634376404 254.1860599715382 166.98709219980304 257.5163728987401 143.26982170129597C261.27390778731024 116.5126525846045 242.8941125792302 75.48286060092371 210.80537014228207 78.12119963980213"/>
      </g>
      <g transform="translate(140, 158.5) rotate(-8.000002860513337) translate(-140, -158.5)" opacity="1">
        <path fill="rgb(137,197,204)" fill-opacity="1" opacity="1" fill-rule="evenodd" d="M187.08728477186577 8.281878376755147C160.49848134808514 29.16351131361712 144.58610716799066 61.07338018342941 131.28849633877053 91.30535914068192C116.43663935922652 125.07145366273933 104.87304746947524 159.85285203557655 99.48432273412014 196.37210802093918C95.94437473270759 220.3654615117586 91.89461209298047 244.44009034037379 89.92503636003896 268.6257143055486C89.22498333457074 277.21515178037095 88.87484546910837 285.8689463485468 89.04070063304697 294.48668459492086C89.05458652150216 295.19486584263615 89.43104728336488 314.43762194448425 92.93804139413972 310.45884751784274C94.93254773176896 308.1962117708511 92.58477215817999 290.5025427038153 92.62501294123489 287.61616122473697C92.8548438741809 271.35937993297375 94.64809745510144 255.20213143382637 97.0075498633558 239.12685365875663C100.892070765831 212.65943842682836 103.8148997098001 186.19515241502083 110.20907726878578 160.17976572030943C111.16314394005168 156.29543085512407 112.06160005986413 152.201097591231 113.5393791616288 148.47767863946353C115.10908502398782 144.51895932755957 113.59196527343336 146.13009727782162 117.05717563329185 144.96259420256104C120.42428487464095 143.82728770289117 124.27952955590791 144.59882908774526 127.82122080632628 143.07876274233018C141.86980071397556 137.04832317334456 151.32577015429078 117.81564791038397 158.33910211139215 105.31009805671374C166.36051839817208 91.00950044288224 172.21063058168886 75.38005498621783 177.30992508040165 59.861025154496154C181.05502135794072 48.45858517390299 184.19143266583143 37.04315605667368 186.70680758640987 25.314297700029698C187.49942881599503 21.617749068337773 188.06418454540443 17.715045565776318 189.3140889255194 14.146460704245236C189.65089878500407 13.183801238118024 190.88916655162362 11.5711488374485 190.97647517680969 10.688981090806454C191.16113681330592 8.82194319185696 190.19406974313063 7.572724653387087 190.3215630589642 5.999999999999355C189.2277645438415 6.737378758177715 188.14864184405351 7.498515905708078 187.08728477186577 8.281878376755147"/>
      </g>
      <g opacity="1">
        <path fill="rgb(137,197,204)" fill-opacity="1" opacity="1" fill-rule="evenodd" d="M38 328C38 368.31678673539994 70.68321326460004 401 111 401C151.31678673539994 401 184 368.31678673539994 184 328"/>
      </g>
      <g opacity="1">
        <path fill="rgb(105,161,172)" fill-opacity="1" opacity="1" fill-rule="evenodd" d="M161.02757263183594 264.0848083496094C179.0946044921875 262.7528381347656 199.27114868164062 277.3284912109375 207.98606872558594 292.49664306640625C215.01153564453125 304.72613525390625 213.8280029296875 320.78509521484375 209.4886474609375 333.77777099609375C206.58282470703125 342.4761962890625 200.24087524414062 354.87811279296875 189.664794921875 354.99896240234375C176.43292236328125 355.1502380371094 175.79486083984375 338.79632568359375 175.5389404296875 329.2358703613281C175.19888305664062 316.52545166015625 173.5927734375 305.4529724121094 163.57730102539062 296.7892150878906C161.24305725097656 294.7709655761719 158.69163513183594 292.99530029296875 156.3338165283203 291.00494384765625C152.64178466796875 287.8896484375 148.56170654296875 284.70001220703125 148.08609008789062 279.54620361328125C147.42950439453125 272.43585205078125 151.44309997558594 271.1562805175781 157.57122802734375 272.4772644042969C157.76890563964844 272.5198059082031 158.30599975585938 272.723388671875 159.03640747070312 273.000244140625C162.16586303710938 274.1864318847656 168.8440704345703 276.7177429199219 167.58079528808594 273.6917724609375C167.10519409179688 272.5516357421875 165.36776733398438 271.6481628417969 163.17494201660156 270.97119140625C157.50051879882812 270.3542175292969 150.73348999023438 269.63836669921875 148.78729248046875 270.0660095214844C127.79170989990234 274.6721496582031 119.61721801757812 303.75506591796875 117.44627380371094 322.23284912109375C117.21198272705078 324.2273254394531 117.02252197265625 326.2283020019531 116.8572998046875 328.23236083984375L113 328.23236083984375C113.26764678955078 323.3928527832031 113.62114715576172 318.5617980957031 114.43019104003906 313.7761535644531C117.5245590209961 295.4732971191406 127.19993591308594 268.5912170410156 148.4202880859375 265.6204528808594C149.203125 265.5097351074219 152.08285522460938 265.49114990234375 155.5711669921875 265.6956787109375C157.22442626953125 264.77191162109375 159.07632446289062 264.2132568359375 161.02757263183594 264.0848083496094Z"/>
      </g>
    </g>
    <g transform="translate(22, 191)" opacity="0.5">
      <g opacity="1">
        <path fill="rgb(105,161,172)" fill-opacity="1" opacity="1" fill-rule="evenodd" d="M178.2229802888857 111.44451791750309C182.42530926001848 105.45250884848477 190.22362921946916 90.23477289612802 196.13832857886507 88.09364817898579C199.9479417916006 86.71456591006489 198.83719506155632 100.9801153577595 198.88424147650443 103.7002426956954C199.0674540012355 114.22398675880493 198.04293016404972 124.6810021242488 196.77772577281107 135.11638987390404C194.4983348174859 153.9365690482982 187.04492575964883 170.69736915699474 176.82202277823166 186.71527792808763C171.56153371597708 194.9574667872169 165.3913972945744 203.2995957864299 156.84546965041642 208.44232664061937C152.91177097367176 210.81065825779217 148.17854347392293 211.20719549533038 144.29376899966243 213.24770576162334C139.76938211293782 215.62312635842645 142.23335430750612 213.70284827879794 140.194367172898 218.4174872807995C137.36280202226865 224.96313316046508 136.45710603581446 233.40771409051882 135.14698534466302 240.3921509846205C129.13155338942502 272.45451193165945 114.56830534598356 441.9445128300078 117.09301411133978 474.55806237096147C117.31724865875817 477.44878411573825 113.28650859966748 478.1400550315323 113.08529177634433 474.61108837511375C112.01578942810521 455.8995177762423 121.27043716646612 326.3221792901096 125.93956384211727 283.9466636007909C130.60869051776842 241.5711479114713 135.33363350708345 204.13449943550867 140.07132513201273 189.47389769962675C145.81885098035005 171.6874720165587 156.1992118160933 150.29792175202778 164.8401373497632 133.7113098848805C168.853782212944 126.00554447833613 173.22873427895382 118.56523828563604 178.2229802888857 111.44451791750309Z"/>
      </g>
      <g opacity="1">
        <path fill="rgb(193,222,226)" fill-opacity="1" opacity="1" fill-rule="evenodd" d="M209.41413178373176 319.27776532517083C220.3491674179609 311.2496973374265 232.1855220861687 326.40105578415256 222.2904414673146 334.43035803005523C216.82020625706514 338.86846913336393 211.1013948527933 337.28971192331215 207.88185978481926 333.5911988227252C205.79186809115973 336.13878955340624 203.83570645850182 338.8025426624217 201.95608938001808 341.05248850219505C196.22937622653262 347.9085004537392 190.81676658655851 354.9281503289292 185.64388056573483 362.11147676941346C174.89800924912404 377.03466194558155 165.68899157185663 392.8006884287061 156.06030817245733 408.2784206702738C146.55805686853944 423.5541001830301 137.1317861961624 438.9080205609323 128.51907337125306 454.5707222698951C121.22288304522164 467.8408287027262 111.49798829697129 483.45204408372933 109 498C112.7901106611631 467.1463031932745 127.17186318959574 437.4904380452702 144.29802197945307 410.2905403885022C161.2848243433087 383.31408864466096 180.77915369785381 353.85280843058536 207.08102599305386 332.56358275667634C204.4041391489556 328.627042183592 204.3298283817502 323.0079302657899 209.41413178373176 319.27776532517083Z"/>
      </g>
      <g opacity="1">
        <path fill="rgb(105,161,172)" fill-opacity="1" opacity="1" fill-rule="evenodd" d="M1.9131966040418666 244.0307681349834C8.032440629781433 245.2274918052835 18.031216393085188 259.07017482597195 23.075298221998917 264.344344800177C29.069850465351834 270.61195620385206 34.508397083462505 277.2923376167121 39.634867247234205 284.291715593985C50.67110782661649 299.35758664184686 60.5410852839617 315.3757350744238 68.9339235092747 332.0798591689328C82.61644733184283 359.3109233798722 93.5779281145837 387.2645543581493 101.533143700745 416.9176581226814C106.40281965196745 435.06939469332895 109.55573325654196 453.8829635893771 111.42431959424883 472.56515173645585C111.77721004349968 476.0885006499425 115.47120013352045 503.2528524364624 110.1483865569236 503.985006555389C105.36107696915602 504.64426569767 106.83969819829906 483.35855696158615 106.60874510399144 480.463176385715C103.99807174546203 447.7978661969121 96.17723432834443 416.01479376247266 85.29852112637309 385.2261030090232C82.9289814531305 378.519078336177 80.72759530351284 370.30417127929957 76.93814226650956 364.26849662032106C74.20920519146709 359.92109605111546 76.918572244064 361.4371747434215 72.12282418157389 359.79189352848505C68.00491021990234 358.378312326808 63.31313329618803 358.7237295950255 59.09629620037382 356.99338866375297C49.935634322565456 353.23666159203395 42.600572066035745 345.943735294288 36.17088792081542 338.60790915020254C23.675757920582885 324.3513744204725 13.774002982819356 308.92803468089244 8.612636483546353 290.66038988521393C5.749467171912101 280.5315780901218 3.118360730913014 270.34384889130416 1.658258210293428 259.90183258979727C1.280555113460006 257.2028780969893 -2.028162284364423 243.259967451914 1.9131966040418666 244.0307681349834Z"/>
      </g>
      <g opacity="1">
        <path fill="rgb(137,197,204)" fill-opacity="1" opacity="1" fill-rule="evenodd" d="M26.06136295093419 13.716031869198202C49.11128795113462 53.69041147216662 68.05277206939232 97.60121940863378 80.28342491807732 142.07622698258396C87.6937407430308 169.0231524076255 92.87599704665142 196.6746573375052 98.02498128415658 224.12641817286988C105.99725473404008 266.63204676374124 113.53811088795409 309.13439600794834 115.68312744182595 352.39505148950644C117.84115172187093 395.9064138178218 122.10849905848883 446.09165839265813 107.8608343296493 488C114.97761427730308 445.45164672006894 108.20195666532346 400.16223745073916 107.00226275243892 357.34981961565467C106.4289578210363 336.91186490287316 104.76762657350129 316.67372578005666 102.58827064755978 296.35519997710196C100.47342272552834 276.64513764845276 97.01835956779037 257.02893091740503 93.80091722678591 237.47378970687922C92.23364148052066 227.9500824590228 90.58764878449963 218.44070476900555 88.91179970894976 208.93652846219095C88.41150128047076 206.1009459304028 88.2001645901382 197.68678275505067 86.40143851517615 195.74967124546785C84.5910630710423 193.79980507832522 75.35428842600462 193.00491102086738 72.45436900157429 191.57421574372052C66.61492741063272 188.69262027363484 61.12214448448974 184.59952306050877 56.26088886252184 180.27464151591874C46.94179820919114 171.9839530350118 38.834658437221805 161.15116119396004 32.43585502561299 150.47249160587518C17.630683653556517 125.76373019764253 11.7115833812969 95.61004414430937 12.010758643079502 66.99415463236137C12.068241313523226 61.438241930976666 21.003397981022403 1.6099513167129869 17.414895347865702 0.7860662651676894C17.630953637129956 0.5330293769226464 17.83532826323008 0.2717611800163543 18.028036373162443 0C20.74484037177864 4.548784521682735 23.410812205563595 9.128395557235685 26.06136295093419 13.716031869198202Z"/>
      </g>
      <g opacity="1">
        <path fill="rgb(137,197,204)" fill-opacity="1" opacity="1" fill-rule="evenodd" d="M274.84616197306065 157.88728753334382C275.20181398279755 157.3743044861437 277.51654641939245 153.8066607221259 276.35091968161504 154.03466608247166C278.724177724297 153.5704389523976 273.0866531741307 157.96939754185217 279 155.27021663551534C276.1923018465721 157.9219073591099 277.81271471502293 161.36649524967214 277.8501899750513 164.93538020887505C277.91133007520585 170.72966402964045 276.94186050499155 176.4764333968664 275.850556834047 182.14639420922327C274.1261266870941 191.10887165020222 271.55719049835574 199.8230191242682 267.8284267255248 208.1591998326732C259.7014696947009 226.32563365665612 245.90148024158412 243.81414582550815 229.5183280607357 255.1716680564194C221.43041918348803 260.7793327552034 213.5039084475718 262.68853551781626 204.27964350651828 265.27009265967735C198.45320711300258 266.90103131199544 197.99116158741032 269.914959511216 194.89847512190158 275.5688627811344C188.45973426840726 287.3447338851345 182.13566061902054 299.0782464644622 176.45726265910275 311.25143671293495C169.67687884970832 325.78750722691734 163.09476152707424 340.3395994053998 156.88591451893754 355.1315585830564C135.9694220313336 404.9574858011298 118.94533736178612 456.57789181815195 110.004808285687 510C109.78590656710547 478.51851492959236 117.06863414646767 446.0952779520038 126.25509058065626 416.0881863094296C132.94687149159773 394.22570032000647 141.658313392194 373.15092515881133 150.94991705968178 352.2894976017427C153.20146062293892 347.23557154783566 156.61347063980014 340.7345091231914 157.5696280962039 335.15475594892666C158.23912982542876 331.2453040899769 156.1922653176381 327.4855582134253 155.25509736770155 323.3672531674989C151.60149882386486 307.32981159389783 151.86299893666026 289.3627078697233 155.07140172561907 273.2395153184217C158.60891191061089 255.46063565624547 168.8392277790973 247.20885433686544 186.1451284031549 244.6905908807414C192.47424261782305 243.7694357512924 200.51870988238053 244.1070452000328 206.32219587276523 241.4084287051279C212.64500692895388 238.46972346029466 215.25326183236962 228.81023694385573 218.84864361599966 222.6096056600387C228.50571694814406 205.9534006891232 239.97971789367767 189.97908279583814 253.1550402246296 175.94484834784467C256.80316182986354 172.05859023509473 260.72637721935166 168.47325357875005 264.8884701672821 165.150086404511C267.51308343930765 163.0533525750985 273.0575042774387 160.470179632735 274.84616197306065 157.88728753334382Z"/>
      </g>
      <g opacity="1">
        <path fill="rgb(193,222,226)" fill-opacity="1" opacity="1" fill-rule="evenodd" d="M75.84495416303294 481.7294837082372C75.39969792436554 478.7102804460403 77.73959459171073 476 80.79145328053175 476L142.20854671946825 476C145.26040540828927 476 147.60030207563446 478.7102804460403 147.15504583696705 481.7294837082372L142.40806213574695 513.9179348329487C140.96095999803825 523.7304767256312 132.54073911498918 531 122.6220656657517 531L100.37793433424815 531C90.45926088501068 531 82.0390400019616 523.7304767256312 80.59193786425291 513.9179348329487L75.84495416303294 481.7294837082372Z"/>
      </g>
    </g>
    <g transform="translate(32, 635)" opacity="1">
      <g opacity="1">
        <path fill="rgb(242,242,242)" fill-opacity="1" opacity="1" fill-rule="evenodd" d="M15.417721518987342 48.45569620253165C15.417721518987342 69.74312738153164 17.09760471729847 87.00000000000003 39.64556962025317 87.00000000000003C62.19353452320786 87.00000000000003 63.87341772151899 69.74312738153164 63.87341772151899 48.45569620253165"/>
      </g>
      <g opacity="1">
        <path fill="rgb(242,242,242)" fill-opacity="1" opacity="1" fill-rule="evenodd" d="M46.35341703123884 35.17416649996468C45.52691874571373 36.60320497941174 44.78996268356698 38.06082422844772 44.13901428334941 39.54032562920023C44.11603963392997 36.49334764630421 44.28452039633925 33.42404093716689 44.74460247830296 30.312756222695803C45.53104240073777 24.983335843407968 46.73220419987224 19.681603084659475 47.860907489299215 14.388355241882703C48.672089341878 10.584433439404604 48.6208382008654 3.751843209548423 51.69944122307088 0.7204953350214391C52.54361231584169 0.06537050709994452 52.746849599167554 1.3506119895525928 52.746849599167554 1.9083835710617754C52.757453283515005 2.0262792456161605 52.74449322486805 -0.3682533565072677 51.92506406224132 0.048847249681322695C47.05443838531932 2.564401548032903 45.476256698275975 10.474129531772306 43.916926005628156 14.434352417939882C41.64184661952836 20.214813067303133 39.70608513254651 26.123887179816673 38.90904152576438 32.137906305664565C38.707571523163054 33.65715283912666 38.5980001182396 35.175952798063996 38.572669094520656 36.69207330985233C38.407133799985715 36.28658364130923 38.251613096223394 35.87796795109236 38.07959777236491 35.47381800612375C35.268443233144865 28.880591721574977 31.474680611062393 22.44723911691431 26.74308101780683 16.514049980060168C25.578443020313458 15.054197858400048 10.934165842930387 0.649489985573918 9.787789746257703 2.854228414645756C9.900895712630351 3.174422348946902 10.137711329722968 3.440134191219047 10.49882569111066 3.6513639414623436C10.520033059805566 3.6754789658030003 10.52062215338041 3.6620817300581967 10.508251188308426 3.626355768072002C11.368327807600426 5.015649114809416 13.813655236833903 7.161439706604137 14.57535322912475 8.378801861283081C16.492263721711065 11.442303101597625 17.982081372525734 14.693365642339675 19.49605185990966 17.88235432413069C22.694829971385904 24.62161047829796 25.66209430794326 31.42874596023898 28.538638233972556 38.250171826974444C29.208437628585525 39.83908398630962 29.906513514791655 41.419064655148254 30.618727646794433 42.99413300421375C23.276854423345167 32.40451129698639 13.482584647764037 22.790654926506434 -1.4210854715202004e-14 17.28707048253605C4.604944474661233 19.629800439779526 7.624049045806028 24.037490999823984 10.733874027478878 27.412254683943143C14.484632818596692 31.482781477743067 18.435094331591173 35.443897512960326 22.192922245607377 39.50995856151194C26.6252623028353 44.30661553268093 31.840507721048972 49.35781998300135 36.103777922292764 54.66580478509747C40.23332388204412 63.335602610092714 44.24622931397349 72.01477850010932 46.72336779624932 81.12847140278281C45.70835956676984 77.97967442822626 46.64384016364356 73.62825225831001 46.470057559060685 70.32360077458875C46.33220966254394 67.6932768233565 46.02470281646835 65.08438844931601 45.60350091044527 62.480412395048596C46.12425963061933 63.65490339534413 46.57314893466072 64.83028754468934 46.776386217986584 65.92350198146632C46.59082174190644 64.08986698252585 46.37698077423312 62.267842921230844 46.14723428003876 60.45519692495726C46.736916948471126 58.758213730613924 47.31599593255604 57.17466046557665 47.707154066261424 55.870216278556434C49.71183950150158 49.17874359854566 52.0988466668242 42.60248714594032 55.34946501288802 36.1928029910955C58.35737680611052 30.263633024964804 61.807697874051 24.409934153529846 65.56729306879174 18.73486509202581C67.32102464114263 16.088911032424672 69.09890905006264 13.452781612369707 70.86560068106023 10.812186447066471C72.02199136850567 9.083496461460392 73.12300725991432 6.315627556581419 74.73299999999989 4.65928264399731C64.32607290656696 14.173999469965636 52.95597781824198 23.757488772757306 46.35341703123884 35.17416649996468"/>
      </g>
    </g>
    <g transform="translate(766, 0)" opacity="1">
      <g transform="translate(171.73475995643815, 120.35244310429697) rotate(-18.000006436155008) translate(-171.73475995643815, -120.35244310429697)" opacity="1">
        <path fill="rgb(242,242,242)" fill-opacity="1" opacity="1" fill-rule="evenodd" d="M211.4599881420792 136.91361931750043C211.69798814207923 126.52761931750042 207.4429881420792 116.95561931750042 202.73298814207922 107.92161931750042C193.56398814207918 90.33461931750043 188.97798814207917 79.81261931750045 190.4599881420792 58.92561931750044C191.3319881420792 46.64161931750042 192.37398814207918 33.662619317500415 186.1039881420792 22.50761931750044C181.5389881420792 14.38461931750045 171.96298814207918 5.694619317500454 161.85098814207922 7.163619317500448C145.8439881420792 10.809619317500434 136.90798814207918 26.061619317500412 133.4819881420792 41.20561931750042C129.2359881420792 59.975619317500424 134.09798814207917 73.97961931750041 148.2719881420792 86.00661931750044C156.25898814207918 92.78161931750043 160.76398814207923 99.76061931750041 162.94198814207923 110.07861931750043C164.68498814207922 118.32961931750042 164.18998814207922 127.79161931750042 167.1709881420792 135.72661931750042C171.6279881420792 147.5886193175004 179.67498814207917 154.83261931750042 191.7789881420792 157.03561931750045C187.41098814207922 133.5236193175004 181.2749881420792 109.22961931750042 171.4359881420792 87.43161931750042C170.55298814207922 85.27461931750042 164.20598814207918 76.05461931750044 166.8469881420792 73.72561931750043C169.7559881420792 71.16161931750042 174.55698814207918 85.90361931750041 174.51898814207922 85.8116193175004C177.3079881420792 92.36261931750042 179.66098814207922 99.12561931750042 181.92298814207922 105.91661931750042C181.91098814207922 105.91861931750041 181.89798814207919 105.91761931750042 181.8849881420792 105.91961931750042C184.2199881420792 112.89261931750042 186.49498814207922 119.93761931750042 188.66798814207922 127.02861931750041C189.51198814207922 130.0036193175004 190.30198814207918 132.99561931750043 191.00398814207918 136.0276193175004C192.0339881420792 140.47661931750042 192.15598814207917 152.1936193175004 195.07698814207922 155.6726193175004C195.70198814207922 156.41661931750042 196.33798814207918 156.92561931750043 196.9789881420792 157.2586193175004C198.14898814207922 162.1646193175004 199.2409881420792 167.08161931750038 200.1979881420792 172.0086193175004C202.69698814207922 184.87661931750046 204.1419881420792 198.0756193175004 202.5219881420792 211.1606193175004C202.0489881420792 214.9796193175004 197.18998814207922 228.2616193175004 198.79998814207917 231.6526193175004C201.7429881420792 237.85461931750035 203.39798814207919 228.2906193175004 204.02598814207917 225.44561931750042C209.2189881420792 201.8836193175004 207.3419881420792 179.76261931750042 201.6759881420792 156.69461931750038C206.8849881420792 153.10661931750042 211.36298814207922 141.1216193175004 211.4599881420792 136.91361931750043"/>
      </g>
      <g transform="translate(105.53582841048774, 156.00407789417477) scale(-1, 1) translate(-105.53582841048774, -156.00407789417477) translate(105.53582841048774, 156.00407789417477) rotate(58.000020738721695) translate(-105.53582841048774, -156.00407789417477)" opacity="1">
        <path fill="rgb(242,242,242)" fill-opacity="1" opacity="1" fill-rule="evenodd" d="M115.85853037720719 100.6592498760098C108.25701927932596 101.77117139645314 101.08153637404914 111.37888625070775 97.5410359508326 117.78479606496813C93.15993151317613 125.71140516649461 90.10443899202403 134.75568512414407 87.8025124674679 143.4630540109663C84.01005988733476 157.80649666454445 83.49756629542487 173.7264071614813 83.45061157527225 188.41653475654206C83.44488538988779 190.18675521230472 83.07554643258959 211.8100067034493 85.60365727983222 211.45527269201523C88.1082907669985 211.1039882819889 86.52213741550086 188.65915672222306 86.73572413034152 184.0113937587981C87.19038324986829 174.0926398442747 86.51068504473193 164.31072011892678 88.83723416644128 154.51787665578757C91.2456677391485 144.3777733175978 95.66170190765021 134.82180248445997 101.24186956481424 126.06326451008887C101.95821535641119 124.9392693847183 103.47393662767985 120.7600772791844 105.19580057278937 121.7253907397968C106.87987169436141 122.66943165839449 102.21474846163535 128.23651339699467 101.5522288126524 129.31853837190386C98.81683005449206 133.7869220621239 96.44160835701474 138.51862532647166 94.47466367745 143.37968864361144C90.78929076400641 152.487211293737 88.87445437144032 162.0178850498844 88.93973288482326 171.83142612147032C94.72489797875123 172.71969848397544 99.76508635415996 169.33218990152866 101.70569058095614 163.68749213125326C103.38231766152836 158.8086058735066 103.54608656352414 153.13343662412905 105.45061582239819 148.52016967478198C106.76248489397982 145.3430867782102 108.84910684807994 142.6449235437528 111.40069505539887 140.36358714606973C118.13182597484098 134.34633242375332 125.15900067866008 132.84115634282227 127.16545603737765 122.85456026727906C128.73843916249103 115.02568987230654 126.78523732784899 99.06840869345204 115.85853037720719 100.6592498760098"/>
      </g>
      <g transform="translate(30.552421562308034, 68.50000381469727) scale(-1, 1) translate(-30.552421562308034, -68.50000381469727)" opacity="1">
        <path fill="rgb(242,242,242)" fill-opacity="1" opacity="1" fill-rule="evenodd" d="M29.352313980328958 41.0512580871582C40.39036558555357 40.2462158203125 52.71721266196958 49.05569076538086 58.04158018516294 58.223243713378906C62.33378599570982 65.61470031738281 61.61070631431333 75.32064819335938 58.9595756380438 83.17337036132812C57.18427275108091 88.4306640625 53.30966566489927 95.92632293701172 46.84821699546568 95.99937438964844C38.76420210288755 96.09080505371094 38.37437818931333 86.20658111572266 38.21803663657896 80.42826843261719C38.01026533530943 72.74615478515625 37.029014572369974 66.05400085449219 30.910076126325052 60.81766128540039C29.483970627057474 59.59783935546875 27.92517851279966 58.52462387084961 26.48467253135435 57.321659088134766C24.229028686749857 55.438804626464844 21.736299499738138 53.5109977722168 21.445730194318216 50.39606475830078C21.044588073956888 46.098594665527344 23.496688827741067 45.325225830078125 27.24066923545591 46.123626708984375C27.36144445823423 46.14933776855469 27.68958853172056 46.27238464355469 28.135841354596536 46.43971633911133C30.047786697614114 47.156646728515625 34.1277999727606 48.68654251098633 33.35600660728208 46.857662200927734C33.06543730186216 46.1685791015625 32.00395582603208 45.622520446777344 30.664249405133646 45.213356018066406C27.197467788922708 44.8404655456543 23.063148483502786 44.407806396484375 21.874126419293802 44.66627883911133C9.046885475385109 47.4502067565918 4.052684292066017 65.02777862548828 2.726348861920753 76.1956787109375C2.576185449826637 77.46025848388672 2.456164106595436 78.72916412353516 2.3517644255041272 80L-1.5032371791789956e-8 80C0.16475744532338688 77.0154037475586 0.3793521373151929 74.03565216064453 0.883673414456764 71.08448791503906C2.7741770594000013 60.02232360839844 8.68534468101255 43.77490997314453 21.649900421368997 41.97940444946289C22.128183349835794 41.9124870300293 23.887544616925638 41.901248931884766 26.01873205589048 42.024864196777344C27.028783783185403 41.46654510498047 28.160205826032083 41.12889862060547 29.352313980328958 41.0512580871582Z"/>
      </g>
    </g>
  </g>
</svg>